<mxfile host="app.diagrams.net" modified="2024-05-03T08:16:06.940Z" agent="Mozilla/5.0 (Windows NT 10.0; Win64; x64) AppleWebKit/537.36 (KHTML, like Gecko) Chrome/124.0.0.0 Safari/537.36" etag="zlkEecvyw1JXiW-Ioa3f" version="24.3.1" type="google" pages="2">
  <diagram id="hb_k2-mfAByfuFO6kRaP" name="01 ERD">
    <mxGraphModel grid="1" page="1" gridSize="10" guides="1" tooltips="1" connect="1" arrows="1" fold="1" pageScale="1" pageWidth="3300" pageHeight="4681" math="0" shadow="0">
      <root>
        <mxCell id="0" />
        <mxCell id="1" parent="0" />
        <mxCell id="tgHYuU34AAN5j4zCokdV-126" value="" style="group" connectable="0" vertex="1" parent="1">
          <mxGeometry x="-3000" y="-4480" width="580" height="535" as="geometry" />
        </mxCell>
        <mxCell id="tgHYuU34AAN5j4zCokdV-28" value="User" style="shape=table;startSize=30;container=1;collapsible=1;childLayout=tableLayout;fixedRows=1;rowLines=0;fontStyle=1;align=center;resizeLast=1;html=1;" vertex="1" parent="tgHYuU34AAN5j4zCokdV-126">
          <mxGeometry x="10" y="325" width="210" height="210" as="geometry" />
        </mxCell>
        <mxCell id="tgHYuU34AAN5j4zCokdV-29" value="" style="shape=tableRow;horizontal=0;startSize=0;swimlaneHead=0;swimlaneBody=0;fillColor=none;collapsible=0;dropTarget=0;points=[[0,0.5],[1,0.5]];portConstraint=eastwest;top=0;left=0;right=0;bottom=1;" vertex="1" parent="tgHYuU34AAN5j4zCokdV-28">
          <mxGeometry y="30" width="210" height="30" as="geometry" />
        </mxCell>
        <mxCell id="tgHYuU34AAN5j4zCokdV-30" value="PK" style="shape=partialRectangle;connectable=0;fillColor=none;top=0;left=0;bottom=0;right=0;fontStyle=1;overflow=hidden;whiteSpace=wrap;html=1;" vertex="1" parent="tgHYuU34AAN5j4zCokdV-29">
          <mxGeometry width="30" height="30" as="geometry">
            <mxRectangle width="30" height="30" as="alternateBounds" />
          </mxGeometry>
        </mxCell>
        <mxCell id="tgHYuU34AAN5j4zCokdV-31" value="userId : VARCHAR(45)" style="shape=partialRectangle;connectable=0;fillColor=none;top=0;left=0;bottom=0;right=0;align=left;spacingLeft=6;fontStyle=5;overflow=hidden;whiteSpace=wrap;html=1;" vertex="1" parent="tgHYuU34AAN5j4zCokdV-29">
          <mxGeometry x="30" width="180" height="30" as="geometry">
            <mxRectangle width="180" height="30" as="alternateBounds" />
          </mxGeometry>
        </mxCell>
        <mxCell id="tgHYuU34AAN5j4zCokdV-32" value="" style="shape=tableRow;horizontal=0;startSize=0;swimlaneHead=0;swimlaneBody=0;fillColor=none;collapsible=0;dropTarget=0;points=[[0,0.5],[1,0.5]];portConstraint=eastwest;top=0;left=0;right=0;bottom=0;" vertex="1" parent="tgHYuU34AAN5j4zCokdV-28">
          <mxGeometry y="60" width="210" height="30" as="geometry" />
        </mxCell>
        <mxCell id="tgHYuU34AAN5j4zCokdV-33" value="" style="shape=partialRectangle;connectable=0;fillColor=none;top=0;left=0;bottom=0;right=0;editable=1;overflow=hidden;whiteSpace=wrap;html=1;" vertex="1" parent="tgHYuU34AAN5j4zCokdV-32">
          <mxGeometry width="30" height="30" as="geometry">
            <mxRectangle width="30" height="30" as="alternateBounds" />
          </mxGeometry>
        </mxCell>
        <mxCell id="tgHYuU34AAN5j4zCokdV-34" value="password : VARCHAR(200)" style="shape=partialRectangle;connectable=0;fillColor=none;top=0;left=0;bottom=0;right=0;align=left;spacingLeft=6;overflow=hidden;whiteSpace=wrap;html=1;" vertex="1" parent="tgHYuU34AAN5j4zCokdV-32">
          <mxGeometry x="30" width="180" height="30" as="geometry">
            <mxRectangle width="180" height="30" as="alternateBounds" />
          </mxGeometry>
        </mxCell>
        <mxCell id="tgHYuU34AAN5j4zCokdV-35" value="" style="shape=tableRow;horizontal=0;startSize=0;swimlaneHead=0;swimlaneBody=0;fillColor=none;collapsible=0;dropTarget=0;points=[[0,0.5],[1,0.5]];portConstraint=eastwest;top=0;left=0;right=0;bottom=0;" vertex="1" parent="tgHYuU34AAN5j4zCokdV-28">
          <mxGeometry y="90" width="210" height="30" as="geometry" />
        </mxCell>
        <mxCell id="tgHYuU34AAN5j4zCokdV-36" value="" style="shape=partialRectangle;connectable=0;fillColor=none;top=0;left=0;bottom=0;right=0;editable=1;overflow=hidden;whiteSpace=wrap;html=1;" vertex="1" parent="tgHYuU34AAN5j4zCokdV-35">
          <mxGeometry width="30" height="30" as="geometry">
            <mxRectangle width="30" height="30" as="alternateBounds" />
          </mxGeometry>
        </mxCell>
        <mxCell id="tgHYuU34AAN5j4zCokdV-37" value="name : VARCHAR(45)" style="shape=partialRectangle;connectable=0;fillColor=none;top=0;left=0;bottom=0;right=0;align=left;spacingLeft=6;overflow=hidden;whiteSpace=wrap;html=1;" vertex="1" parent="tgHYuU34AAN5j4zCokdV-35">
          <mxGeometry x="30" width="180" height="30" as="geometry">
            <mxRectangle width="180" height="30" as="alternateBounds" />
          </mxGeometry>
        </mxCell>
        <mxCell id="tgHYuU34AAN5j4zCokdV-38" value="" style="shape=tableRow;horizontal=0;startSize=0;swimlaneHead=0;swimlaneBody=0;fillColor=none;collapsible=0;dropTarget=0;points=[[0,0.5],[1,0.5]];portConstraint=eastwest;top=0;left=0;right=0;bottom=0;" vertex="1" parent="tgHYuU34AAN5j4zCokdV-28">
          <mxGeometry y="120" width="210" height="30" as="geometry" />
        </mxCell>
        <mxCell id="tgHYuU34AAN5j4zCokdV-39" value="" style="shape=partialRectangle;connectable=0;fillColor=none;top=0;left=0;bottom=0;right=0;editable=1;overflow=hidden;whiteSpace=wrap;html=1;" vertex="1" parent="tgHYuU34AAN5j4zCokdV-38">
          <mxGeometry width="30" height="30" as="geometry">
            <mxRectangle width="30" height="30" as="alternateBounds" />
          </mxGeometry>
        </mxCell>
        <mxCell id="tgHYuU34AAN5j4zCokdV-40" value="phoneNumber : VARCHAR(45)" style="shape=partialRectangle;connectable=0;fillColor=none;top=0;left=0;bottom=0;right=0;align=left;spacingLeft=6;overflow=hidden;whiteSpace=wrap;html=1;" vertex="1" parent="tgHYuU34AAN5j4zCokdV-38">
          <mxGeometry x="30" width="180" height="30" as="geometry">
            <mxRectangle width="180" height="30" as="alternateBounds" />
          </mxGeometry>
        </mxCell>
        <mxCell id="tgHYuU34AAN5j4zCokdV-41" value="" style="shape=tableRow;horizontal=0;startSize=0;swimlaneHead=0;swimlaneBody=0;fillColor=none;collapsible=0;dropTarget=0;points=[[0,0.5],[1,0.5]];portConstraint=eastwest;top=0;left=0;right=0;bottom=0;" vertex="1" parent="tgHYuU34AAN5j4zCokdV-28">
          <mxGeometry y="150" width="210" height="30" as="geometry" />
        </mxCell>
        <mxCell id="tgHYuU34AAN5j4zCokdV-42" value="" style="shape=partialRectangle;connectable=0;fillColor=none;top=0;left=0;bottom=0;right=0;editable=1;overflow=hidden;whiteSpace=wrap;html=1;" vertex="1" parent="tgHYuU34AAN5j4zCokdV-41">
          <mxGeometry width="30" height="30" as="geometry">
            <mxRectangle width="30" height="30" as="alternateBounds" />
          </mxGeometry>
        </mxCell>
        <mxCell id="tgHYuU34AAN5j4zCokdV-43" value="email : VARCHAR(45)" style="shape=partialRectangle;connectable=0;fillColor=none;top=0;left=0;bottom=0;right=0;align=left;spacingLeft=6;overflow=hidden;whiteSpace=wrap;html=1;" vertex="1" parent="tgHYuU34AAN5j4zCokdV-41">
          <mxGeometry x="30" width="180" height="30" as="geometry">
            <mxRectangle width="180" height="30" as="alternateBounds" />
          </mxGeometry>
        </mxCell>
        <mxCell id="tgHYuU34AAN5j4zCokdV-60" value="" style="shape=tableRow;horizontal=0;startSize=0;swimlaneHead=0;swimlaneBody=0;fillColor=none;collapsible=0;dropTarget=0;points=[[0,0.5],[1,0.5]];portConstraint=eastwest;top=0;left=0;right=0;bottom=0;" vertex="1" parent="tgHYuU34AAN5j4zCokdV-28">
          <mxGeometry y="180" width="210" height="30" as="geometry" />
        </mxCell>
        <mxCell id="tgHYuU34AAN5j4zCokdV-61" value="" style="shape=partialRectangle;connectable=0;fillColor=none;top=0;left=0;bottom=0;right=0;editable=1;overflow=hidden;whiteSpace=wrap;html=1;" vertex="1" parent="tgHYuU34AAN5j4zCokdV-60">
          <mxGeometry width="30" height="30" as="geometry">
            <mxRectangle width="30" height="30" as="alternateBounds" />
          </mxGeometry>
        </mxCell>
        <mxCell id="tgHYuU34AAN5j4zCokdV-62" value="role : VARCHAR(45)" style="shape=partialRectangle;connectable=0;fillColor=none;top=0;left=0;bottom=0;right=0;align=left;spacingLeft=6;overflow=hidden;whiteSpace=wrap;html=1;" vertex="1" parent="tgHYuU34AAN5j4zCokdV-60">
          <mxGeometry x="30" width="180" height="30" as="geometry">
            <mxRectangle width="180" height="30" as="alternateBounds" />
          </mxGeometry>
        </mxCell>
        <mxCell id="tgHYuU34AAN5j4zCokdV-117" style="edgeStyle=orthogonalEdgeStyle;rounded=0;orthogonalLoop=1;jettySize=auto;html=1;endArrow=ERone;endFill=0;" edge="1" parent="tgHYuU34AAN5j4zCokdV-126" source="tgHYuU34AAN5j4zCokdV-63" target="tgHYuU34AAN5j4zCokdV-28">
          <mxGeometry relative="1" as="geometry" />
        </mxCell>
        <mxCell id="tgHYuU34AAN5j4zCokdV-118" value="0, 1" style="edgeLabel;html=1;align=center;verticalAlign=middle;resizable=0;points=[];" connectable="0" vertex="1" parent="tgHYuU34AAN5j4zCokdV-117">
          <mxGeometry x="-0.65" y="-1" relative="1" as="geometry">
            <mxPoint x="16" y="-18" as="offset" />
          </mxGeometry>
        </mxCell>
        <mxCell id="tgHYuU34AAN5j4zCokdV-119" value="1" style="edgeLabel;html=1;align=center;verticalAlign=middle;resizable=0;points=[];" connectable="0" vertex="1" parent="tgHYuU34AAN5j4zCokdV-117">
          <mxGeometry x="0.7905" relative="1" as="geometry">
            <mxPoint x="15" as="offset" />
          </mxGeometry>
        </mxCell>
        <mxCell id="tgHYuU34AAN5j4zCokdV-63" value="BussinessMan" style="shape=table;startSize=30;container=1;collapsible=1;childLayout=tableLayout;fixedRows=1;rowLines=0;fontStyle=1;align=center;resizeLast=1;html=1;" vertex="1" parent="tgHYuU34AAN5j4zCokdV-126">
          <mxGeometry y="75" width="230" height="90" as="geometry" />
        </mxCell>
        <mxCell id="tgHYuU34AAN5j4zCokdV-64" value="" style="shape=tableRow;horizontal=0;startSize=0;swimlaneHead=0;swimlaneBody=0;fillColor=none;collapsible=0;dropTarget=0;points=[[0,0.5],[1,0.5]];portConstraint=eastwest;top=0;left=0;right=0;bottom=1;" vertex="1" parent="tgHYuU34AAN5j4zCokdV-63">
          <mxGeometry y="30" width="230" height="30" as="geometry" />
        </mxCell>
        <mxCell id="tgHYuU34AAN5j4zCokdV-65" value="PK" style="shape=partialRectangle;connectable=0;fillColor=none;top=0;left=0;bottom=0;right=0;fontStyle=1;overflow=hidden;whiteSpace=wrap;html=1;" vertex="1" parent="tgHYuU34AAN5j4zCokdV-64">
          <mxGeometry width="30" height="30" as="geometry">
            <mxRectangle width="30" height="30" as="alternateBounds" />
          </mxGeometry>
        </mxCell>
        <mxCell id="tgHYuU34AAN5j4zCokdV-66" value="bussinessManId :&amp;nbsp;VARCHAR(45)&lt;span style=&quot;color: rgba(0, 0, 0, 0); font-family: monospace; font-size: 0px; font-weight: 400; text-wrap: nowrap;&quot;&gt;%3CmxGraphModel%3E%3Croot%3E%3CmxCell%20id%3D%220%22%2F%3E%3CmxCell%20id%3D%221%22%20parent%3D%220%22%2F%3E%3CmxCell%20id%3D%222%22%20value%3D%22User%22%20style%3D%22shape%3Dtable%3BstartSize%3D30%3Bcontainer%3D1%3Bcollapsible%3D1%3BchildLayout%3DtableLayout%3BfixedRows%3D1%3BrowLines%3D0%3BfontStyle%3D1%3Balign%3Dcenter%3BresizeLast%3D1%3Bhtml%3D1%3B%22%20vertex%3D%221%22%20parent%3D%221%22%3E%3CmxGeometry%20x%3D%22-1040%22%20y%3D%22-500%22%20width%3D%22210%22%20height%3D%22210%22%20as%3D%22geometry%22%2F%3E%3C%2FmxCell%3E%3CmxCell%20id%3D%223%22%20value%3D%22%22%20style%3D%22shape%3DtableRow%3Bhorizontal%3D0%3BstartSize%3D0%3BswimlaneHead%3D0%3BswimlaneBody%3D0%3BfillColor%3Dnone%3Bcollapsible%3D0%3BdropTarget%3D0%3Bpoints%3D%5B%5B0%2C0.5%5D%2C%5B1%2C0.5%5D%5D%3BportConstraint%3Deastwest%3Btop%3D0%3Bleft%3D0%3Bright%3D0%3Bbottom%3D1%3B%22%20vertex%3D%221%22%20parent%3D%222%22%3E%3CmxGeometry%20y%3D%2230%22%20width%3D%22210%22%20height%3D%2230%22%20as%3D%22geometry%22%2F%3E%3C%2FmxCell%3E%3CmxCell%20id%3D%224%22%20value%3D%22PK%22%20style%3D%22shape%3DpartialRectangle%3Bconnectable%3D0%3BfillColor%3Dnone%3Btop%3D0%3Bleft%3D0%3Bbottom%3D0%3Bright%3D0%3BfontStyle%3D1%3Boverflow%3Dhidden%3BwhiteSpace%3Dwrap%3Bhtml%3D1%3B%22%20vertex%3D%221%22%20parent%3D%223%22%3E%3CmxGeometry%20width%3D%2230%22%20height%3D%2230%22%20as%3D%22geometry%22%3E%3CmxRectangle%20width%3D%2230%22%20height%3D%2230%22%20as%3D%22alternateBounds%22%2F%3E%3C%2FmxGeometry%3E%3C%2FmxCell%3E%3CmxCell%20id%3D%225%22%20value%3D%22userId%20%3A%20VARCHAR(45)%22%20style%3D%22shape%3DpartialRectangle%3Bconnectable%3D0%3BfillColor%3Dnone%3Btop%3D0%3Bleft%3D0%3Bbottom%3D0%3Bright%3D0%3Balign%3Dleft%3BspacingLeft%3D6%3BfontStyle%3D5%3Boverflow%3Dhidden%3BwhiteSpace%3Dwrap%3Bhtml%3D1%3B%22%20vertex%3D%221%22%20parent%3D%223%22%3E%3CmxGeometry%20x%3D%2230%22%20width%3D%22180%22%20height%3D%2230%22%20as%3D%22geometry%22%3E%3CmxRectangle%20width%3D%22180%22%20height%3D%2230%22%20as%3D%22alternateBounds%22%2F%3E%3C%2FmxGeometry%3E%3C%2FmxCell%3E%3CmxCell%20id%3D%226%22%20value%3D%22%22%20style%3D%22shape%3DtableRow%3Bhorizontal%3D0%3BstartSize%3D0%3BswimlaneHead%3D0%3BswimlaneBody%3D0%3BfillColor%3Dnone%3Bcollapsible%3D0%3BdropTarget%3D0%3Bpoints%3D%5B%5B0%2C0.5%5D%2C%5B1%2C0.5%5D%5D%3BportConstraint%3Deastwest%3Btop%3D0%3Bleft%3D0%3Bright%3D0%3Bbottom%3D0%3B%22%20vertex%3D%221%22%20parent%3D%222%22%3E%3CmxGeometry%20y%3D%2260%22%20width%3D%22210%22%20height%3D%2230%22%20as%3D%22geometry%22%2F%3E%3C%2FmxCell%3E%3CmxCell%20id%3D%227%22%20value%3D%22%22%20style%3D%22shape%3DpartialRectangle%3Bconnectable%3D0%3BfillColor%3Dnone%3Btop%3D0%3Bleft%3D0%3Bbottom%3D0%3Bright%3D0%3Beditable%3D1%3Boverflow%3Dhidden%3BwhiteSpace%3Dwrap%3Bhtml%3D1%3B%22%20vertex%3D%221%22%20parent%3D%226%22%3E%3CmxGeometry%20width%3D%2230%22%20height%3D%2230%22%20as%3D%22geometry%22%3E%3CmxRectangle%20width%3D%2230%22%20height%3D%2230%22%20as%3D%22alternateBounds%22%2F%3E%3C%2FmxGeometry%3E%3C%2FmxCell%3E%3CmxCell%20id%3D%228%22%20value%3D%22passowrd%20%3A%20VARCHAR(200)%22%20style%3D%22shape%3DpartialRectangle%3Bconnectable%3D0%3BfillColor%3Dnone%3Btop%3D0%3Bleft%3D0%3Bbottom%3D0%3Bright%3D0%3Balign%3Dleft%3BspacingLeft%3D6%3Boverflow%3Dhidden%3BwhiteSpace%3Dwrap%3Bhtml%3D1%3B%22%20vertex%3D%221%22%20parent%3D%226%22%3E%3CmxGeometry%20x%3D%2230%22%20width%3D%22180%22%20height%3D%2230%22%20as%3D%22geometry%22%3E%3CmxRectangle%20width%3D%22180%22%20height%3D%2230%22%20as%3D%22alternateBounds%22%2F%3E%3C%2FmxGeometry%3E%3C%2FmxCell%3E%3CmxCell%20id%3D%229%22%20value%3D%22%22%20style%3D%22shape%3DtableRow%3Bhorizontal%3D0%3BstartSize%3D0%3BswimlaneHead%3D0%3BswimlaneBody%3D0%3BfillColor%3Dnone%3Bcollapsible%3D0%3BdropTarget%3D0%3Bpoints%3D%5B%5B0%2C0.5%5D%2C%5B1%2C0.5%5D%5D%3BportConstraint%3Deastwest%3Btop%3D0%3Bleft%3D0%3Bright%3D0%3Bbottom%3D0%3B%22%20vertex%3D%221%22%20parent%3D%222%22%3E%3CmxGeometry%20y%3D%2290%22%20width%3D%22210%22%20height%3D%2230%22%20as%3D%22geometry%22%2F%3E%3C%2FmxCell%3E%3CmxCell%20id%3D%2210%22%20value%3D%22%22%20style%3D%22shape%3DpartialRectangle%3Bconnectable%3D0%3BfillColor%3Dnone%3Btop%3D0%3Bleft%3D0%3Bbottom%3D0%3Bright%3D0%3Beditable%3D1%3Boverflow%3Dhidden%3BwhiteSpace%3Dwrap%3Bhtml%3D1%3B%22%20vertex%3D%221%22%20parent%3D%229%22%3E%3CmxGeometry%20width%3D%2230%22%20height%3D%2230%22%20as%3D%22geometry%22%3E%3CmxRectangle%20width%3D%2230%22%20height%3D%2230%22%20as%3D%22alternateBounds%22%2F%3E%3C%2FmxGeometry%3E%3C%2FmxCell%3E%3CmxCell%20id%3D%2211%22%20value%3D%22name%20%3A%20VARCHAR(45)%22%20style%3D%22shape%3DpartialRectangle%3Bconnectable%3D0%3BfillColor%3Dnone%3Btop%3D0%3Bleft%3D0%3Bbottom%3D0%3Bright%3D0%3Balign%3Dleft%3BspacingLeft%3D6%3Boverflow%3Dhidden%3BwhiteSpace%3Dwrap%3Bhtml%3D1%3B%22%20vertex%3D%221%22%20parent%3D%229%22%3E%3CmxGeometry%20x%3D%2230%22%20width%3D%22180%22%20height%3D%2230%22%20as%3D%22geometry%22%3E%3CmxRectangle%20width%3D%22180%22%20height%3D%2230%22%20as%3D%22alternateBounds%22%2F%3E%3C%2FmxGeometry%3E%3C%2FmxCell%3E%3CmxCell%20id%3D%2212%22%20value%3D%22%22%20style%3D%22shape%3DtableRow%3Bhorizontal%3D0%3BstartSize%3D0%3BswimlaneHead%3D0%3BswimlaneBody%3D0%3BfillColor%3Dnone%3Bcollapsible%3D0%3BdropTarget%3D0%3Bpoints%3D%5B%5B0%2C0.5%5D%2C%5B1%2C0.5%5D%5D%3BportConstraint%3Deastwest%3Btop%3D0%3Bleft%3D0%3Bright%3D0%3Bbottom%3D0%3B%22%20vertex%3D%221%22%20parent%3D%222%22%3E%3CmxGeometry%20y%3D%22120%22%20width%3D%22210%22%20height%3D%2230%22%20as%3D%22geometry%22%2F%3E%3C%2FmxCell%3E%3CmxCell%20id%3D%2213%22%20value%3D%22%22%20style%3D%22shape%3DpartialRectangle%3Bconnectable%3D0%3BfillColor%3Dnone%3Btop%3D0%3Bleft%3D0%3Bbottom%3D0%3Bright%3D0%3Beditable%3D1%3Boverflow%3Dhidden%3BwhiteSpace%3Dwrap%3Bhtml%3D1%3B%22%20vertex%3D%221%22%20parent%3D%2212%22%3E%3CmxGeometry%20width%3D%2230%22%20height%3D%2230%22%20as%3D%22geometry%22%3E%3CmxRectangle%20width%3D%2230%22%20height%3D%2230%22%20as%3D%22alternateBounds%22%2F%3E%3C%2FmxGeometry%3E%3C%2FmxCell%3E%3CmxCell%20id%3D%2214%22%20value%3D%22phoneNumber%20%3A%20VARCHAR(45)%22%20style%3D%22shape%3DpartialRectangle%3Bconnectable%3D0%3BfillColor%3Dnone%3Btop%3D0%3Bleft%3D0%3Bbottom%3D0%3Bright%3D0%3Balign%3Dleft%3BspacingLeft%3D6%3Boverflow%3Dhidden%3BwhiteSpace%3Dwrap%3Bhtml%3D1%3B%22%20vertex%3D%221%22%20parent%3D%2212%22%3E%3CmxGeometry%20x%3D%2230%22%20width%3D%22180%22%20height%3D%2230%22%20as%3D%22geometry%22%3E%3CmxRectangle%20width%3D%22180%22%20height%3D%2230%22%20as%3D%22alternateBounds%22%2F%3E%3C%2FmxGeometry%3E%3C%2FmxCell%3E%3CmxCell%20id%3D%2215%22%20value%3D%22%22%20style%3D%22shape%3DtableRow%3Bhorizontal%3D0%3BstartSize%3D0%3BswimlaneHead%3D0%3BswimlaneBody%3D0%3BfillColor%3Dnone%3Bcollapsible%3D0%3BdropTarget%3D0%3Bpoints%3D%5B%5B0%2C0.5%5D%2C%5B1%2C0.5%5D%5D%3BportConstraint%3Deastwest%3Btop%3D0%3Bleft%3D0%3Bright%3D0%3Bbottom%3D0%3B%22%20vertex%3D%221%22%20parent%3D%222%22%3E%3CmxGeometry%20y%3D%22150%22%20width%3D%22210%22%20height%3D%2230%22%20as%3D%22geometry%22%2F%3E%3C%2FmxCell%3E%3CmxCell%20id%3D%2216%22%20value%3D%22%22%20style%3D%22shape%3DpartialRectangle%3Bconnectable%3D0%3BfillColor%3Dnone%3Btop%3D0%3Bleft%3D0%3Bbottom%3D0%3Bright%3D0%3Beditable%3D1%3Boverflow%3Dhidden%3BwhiteSpace%3Dwrap%3Bhtml%3D1%3B%22%20vertex%3D%221%22%20parent%3D%2215%22%3E%3CmxGeometry%20width%3D%2230%22%20height%3D%2230%22%20as%3D%22geometry%22%3E%3CmxRectangle%20width%3D%2230%22%20height%3D%2230%22%20as%3D%22alternateBounds%22%2F%3E%3C%2FmxGeometry%3E%3C%2FmxCell%3E%3CmxCell%20id%3D%2217%22%20value%3D%22email%20%3A%20VARCHAR(45)%22%20style%3D%22shape%3DpartialRectangle%3Bconnectable%3D0%3BfillColor%3Dnone%3Btop%3D0%3Bleft%3D0%3Bbottom%3D0%3Bright%3D0%3Balign%3Dleft%3BspacingLeft%3D6%3Boverflow%3Dhidden%3BwhiteSpace%3Dwrap%3Bhtml%3D1%3B%22%20vertex%3D%221%22%20parent%3D%2215%22%3E%3CmxGeometry%20x%3D%2230%22%20width%3D%22180%22%20height%3D%2230%22%20as%3D%22geometry%22%3E%3CmxRectangle%20width%3D%22180%22%20height%3D%2230%22%20as%3D%22alternateBounds%22%2F%3E%3C%2FmxGeometry%3E%3C%2FmxCell%3E%3CmxCell%20id%3D%2218%22%20value%3D%22%22%20style%3D%22shape%3DtableRow%3Bhorizontal%3D0%3BstartSize%3D0%3BswimlaneHead%3D0%3BswimlaneBody%3D0%3BfillColor%3Dnone%3Bcollapsible%3D0%3BdropTarget%3D0%3Bpoints%3D%5B%5B0%2C0.5%5D%2C%5B1%2C0.5%5D%5D%3BportConstraint%3Deastwest%3Btop%3D0%3Bleft%3D0%3Bright%3D0%3Bbottom%3D0%3B%22%20vertex%3D%221%22%20parent%3D%222%22%3E%3CmxGeometry%20y%3D%22180%22%20width%3D%22210%22%20height%3D%2230%22%20as%3D%22geometry%22%2F%3E%3C%2FmxCell%3E%3CmxCell%20id%3D%2219%22%20value%3D%22%22%20style%3D%22shape%3DpartialRectangle%3Bconnectable%3D0%3BfillColor%3Dnone%3Btop%3D0%3Bleft%3D0%3Bbottom%3D0%3Bright%3D0%3Beditable%3D1%3Boverflow%3Dhidden%3BwhiteSpace%3Dwrap%3Bhtml%3D1%3B%22%20vertex%3D%221%22%20parent%3D%2218%22%3E%3CmxGeometry%20width%3D%2230%22%20height%3D%2230%22%20as%3D%22geometry%22%3E%3CmxRectangle%20width%3D%2230%22%20height%3D%2230%22%20as%3D%22alternateBounds%22%2F%3E%3C%2FmxGeometry%3E%3C%2FmxCell%3E%3CmxCell%20id%3D%2220%22%20value%3D%22role%20%3A%20VARCHAR(45)%22%20style%3D%22shape%3DpartialRectangle%3Bconnectable%3D0%3BfillColor%3Dnone%3Btop%3D0%3Bleft%3D0%3Bbottom%3D0%3Bright%3D0%3Balign%3Dleft%3BspacingLeft%3D6%3Boverflow%3Dhidden%3BwhiteSpace%3Dwrap%3Bhtml%3D1%3B%22%20vertex%3D%221%22%20parent%3D%2218%22%3E%3CmxGeometry%20x%3D%2230%22%20width%3D%22180%22%20height%3D%2230%22%20as%3D%22geometry%22%3E%3CmxRectangle%20width%3D%22180%22%20height%3D%2230%22%20as%3D%22alternateBounds%22%2F%3E%3C%2FmxGeometry%3E%3C%2FmxCell%3E%3C%2Froot%3E%3C%2FmxGraphModel%3E&lt;/span&gt;&lt;span style=&quot;color: rgba(0, 0, 0, 0); font-family: monospace; font-size: 0px; font-weight: 400; text-wrap: nowrap;&quot;&gt;%3CmxGraphModel%3E%3Croot%3E%3CmxCell%20id%3D%220%22%2F%3E%3CmxCell%20id%3D%221%22%20parent%3D%220%22%2F%3E%3CmxCell%20id%3D%222%22%20value%3D%22User%22%20style%3D%22shape%3Dtable%3BstartSize%3D30%3Bcontainer%3D1%3Bcollapsible%3D1%3BchildLayout%3DtableLayout%3BfixedRows%3D1%3BrowLines%3D0%3BfontStyle%3D1%3Balign%3Dcenter%3BresizeLast%3D1%3Bhtml%3D1%3B%22%20vertex%3D%221%22%20parent%3D%221%22%3E%3CmxGeometry%20x%3D%22-1040%22%20y%3D%22-500%22%20width%3D%22210%22%20height%3D%22210%22%20as%3D%22geometry%22%2F%3E%3C%2FmxCell%3E%3CmxCell%20id%3D%223%22%20value%3D%22%22%20style%3D%22shape%3DtableRow%3Bhorizontal%3D0%3BstartSize%3D0%3BswimlaneHead%3D0%3BswimlaneBody%3D0%3BfillColor%3Dnone%3Bcollapsible%3D0%3BdropTarget%3D0%3Bpoints%3D%5B%5B0%2C0.5%5D%2C%5B1%2C0.5%5D%5D%3BportConstraint%3Deastwest%3Btop%3D0%3Bleft%3D0%3Bright%3D0%3Bbottom%3D1%3B%22%20vertex%3D%221%22%20parent%3D%222%22%3E%3CmxGeometry%20y%3D%2230%22%20width%3D%22210%22%20height%3D%2230%22%20as%3D%22geometry%22%2F%3E%3C%2FmxCell%3E%3CmxCell%20id%3D%224%22%20value%3D%22PK%22%20style%3D%22shape%3DpartialRectangle%3Bconnectable%3D0%3BfillColor%3Dnone%3Btop%3D0%3Bleft%3D0%3Bbottom%3D0%3Bright%3D0%3BfontStyle%3D1%3Boverflow%3Dhidden%3BwhiteSpace%3Dwrap%3Bhtml%3D1%3B%22%20vertex%3D%221%22%20parent%3D%223%22%3E%3CmxGeometry%20width%3D%2230%22%20height%3D%2230%22%20as%3D%22geometry%22%3E%3CmxRectangle%20width%3D%2230%22%20height%3D%2230%22%20as%3D%22alternateBounds%22%2F%3E%3C%2FmxGeometry%3E%3C%2FmxCell%3E%3CmxCell%20id%3D%225%22%20value%3D%22userId%20%3A%20VARCHAR(45)%22%20style%3D%22shape%3DpartialRectangle%3Bconnectable%3D0%3BfillColor%3Dnone%3Btop%3D0%3Bleft%3D0%3Bbottom%3D0%3Bright%3D0%3Balign%3Dleft%3BspacingLeft%3D6%3BfontStyle%3D5%3Boverflow%3Dhidden%3BwhiteSpace%3Dwrap%3Bhtml%3D1%3B%22%20vertex%3D%221%22%20parent%3D%223%22%3E%3CmxGeometry%20x%3D%2230%22%20width%3D%22180%22%20height%3D%2230%22%20as%3D%22geometry%22%3E%3CmxRectangle%20width%3D%22180%22%20height%3D%2230%22%20as%3D%22alternateBounds%22%2F%3E%3C%2FmxGeometry%3E%3C%2FmxCell%3E%3CmxCell%20id%3D%226%22%20value%3D%22%22%20style%3D%22shape%3DtableRow%3Bhorizontal%3D0%3BstartSize%3D0%3BswimlaneHead%3D0%3BswimlaneBody%3D0%3BfillColor%3Dnone%3Bcollapsible%3D0%3BdropTarget%3D0%3Bpoints%3D%5B%5B0%2C0.5%5D%2C%5B1%2C0.5%5D%5D%3BportConstraint%3Deastwest%3Btop%3D0%3Bleft%3D0%3Bright%3D0%3Bbottom%3D0%3B%22%20vertex%3D%221%22%20parent%3D%222%22%3E%3CmxGeometry%20y%3D%2260%22%20width%3D%22210%22%20height%3D%2230%22%20as%3D%22geometry%22%2F%3E%3C%2FmxCell%3E%3CmxCell%20id%3D%227%22%20value%3D%22%22%20style%3D%22shape%3DpartialRectangle%3Bconnectable%3D0%3BfillColor%3Dnone%3Btop%3D0%3Bleft%3D0%3Bbottom%3D0%3Bright%3D0%3Beditable%3D1%3Boverflow%3Dhidden%3BwhiteSpace%3Dwrap%3Bhtml%3D1%3B%22%20vertex%3D%221%22%20parent%3D%226%22%3E%3CmxGeometry%20width%3D%2230%22%20height%3D%2230%22%20as%3D%22geometry%22%3E%3CmxRectangle%20width%3D%2230%22%20height%3D%2230%22%20as%3D%22alternateBounds%22%2F%3E%3C%2FmxGeometry%3E%3C%2FmxCell%3E%3CmxCell%20id%3D%228%22%20value%3D%22passowrd%20%3A%20VARCHAR(200)%22%20style%3D%22shape%3DpartialRectangle%3Bconnectable%3D0%3BfillColor%3Dnone%3Btop%3D0%3Bleft%3D0%3Bbottom%3D0%3Bright%3D0%3Balign%3Dleft%3BspacingLeft%3D6%3Boverflow%3Dhidden%3BwhiteSpace%3Dwrap%3Bhtml%3D1%3B%22%20vertex%3D%221%22%20parent%3D%226%22%3E%3CmxGeometry%20x%3D%2230%22%20width%3D%22180%22%20height%3D%2230%22%20as%3D%22geometry%22%3E%3CmxRectangle%20width%3D%22180%22%20height%3D%2230%22%20as%3D%22alternateBounds%22%2F%3E%3C%2FmxGeometry%3E%3C%2FmxCell%3E%3CmxCell%20id%3D%229%22%20value%3D%22%22%20style%3D%22shape%3DtableRow%3Bhorizontal%3D0%3BstartSize%3D0%3BswimlaneHead%3D0%3BswimlaneBody%3D0%3BfillColor%3Dnone%3Bcollapsible%3D0%3BdropTarget%3D0%3Bpoints%3D%5B%5B0%2C0.5%5D%2C%5B1%2C0.5%5D%5D%3BportConstraint%3Deastwest%3Btop%3D0%3Bleft%3D0%3Bright%3D0%3Bbottom%3D0%3B%22%20vertex%3D%221%22%20parent%3D%222%22%3E%3CmxGeometry%20y%3D%2290%22%20width%3D%22210%22%20height%3D%2230%22%20as%3D%22geometry%22%2F%3E%3C%2FmxCell%3E%3CmxCell%20id%3D%2210%22%20value%3D%22%22%20style%3D%22shape%3DpartialRectangle%3Bconnectable%3D0%3BfillColor%3Dnone%3Btop%3D0%3Bleft%3D0%3Bbottom%3D0%3Bright%3D0%3Beditable%3D1%3Boverflow%3Dhidden%3BwhiteSpace%3Dwrap%3Bhtml%3D1%3B%22%20vertex%3D%221%22%20parent%3D%229%22%3E%3CmxGeometry%20width%3D%2230%22%20height%3D%2230%22%20as%3D%22geometry%22%3E%3CmxRectangle%20width%3D%2230%22%20height%3D%2230%22%20as%3D%22alternateBounds%22%2F%3E%3C%2FmxGeometry%3E%3C%2FmxCell%3E%3CmxCell%20id%3D%2211%22%20value%3D%22name%20%3A%20VARCHAR(45)%22%20style%3D%22shape%3DpartialRectangle%3Bconnectable%3D0%3BfillColor%3Dnone%3Btop%3D0%3Bleft%3D0%3Bbottom%3D0%3Bright%3D0%3Balign%3Dleft%3BspacingLeft%3D6%3Boverflow%3Dhidden%3BwhiteSpace%3Dwrap%3Bhtml%3D1%3B%22%20vertex%3D%221%22%20parent%3D%229%22%3E%3CmxGeometry%20x%3D%2230%22%20width%3D%22180%22%20height%3D%2230%22%20as%3D%22geometry%22%3E%3CmxRectangle%20width%3D%22180%22%20height%3D%2230%22%20as%3D%22alternateBounds%22%2F%3E%3C%2FmxGeometry%3E%3C%2FmxCell%3E%3CmxCell%20id%3D%2212%22%20value%3D%22%22%20style%3D%22shape%3DtableRow%3Bhorizontal%3D0%3BstartSize%3D0%3BswimlaneHead%3D0%3BswimlaneBody%3D0%3BfillColor%3Dnone%3Bcollapsible%3D0%3BdropTarget%3D0%3Bpoints%3D%5B%5B0%2C0.5%5D%2C%5B1%2C0.5%5D%5D%3BportConstraint%3Deastwest%3Btop%3D0%3Bleft%3D0%3Bright%3D0%3Bbottom%3D0%3B%22%20vertex%3D%221%22%20parent%3D%222%22%3E%3CmxGeometry%20y%3D%22120%22%20width%3D%22210%22%20height%3D%2230%22%20as%3D%22geometry%22%2F%3E%3C%2FmxCell%3E%3CmxCell%20id%3D%2213%22%20value%3D%22%22%20style%3D%22shape%3DpartialRectangle%3Bconnectable%3D0%3BfillColor%3Dnone%3Btop%3D0%3Bleft%3D0%3Bbottom%3D0%3Bright%3D0%3Beditable%3D1%3Boverflow%3Dhidden%3BwhiteSpace%3Dwrap%3Bhtml%3D1%3B%22%20vertex%3D%221%22%20parent%3D%2212%22%3E%3CmxGeometry%20width%3D%2230%22%20height%3D%2230%22%20as%3D%22geometry%22%3E%3CmxRectangle%20width%3D%2230%22%20height%3D%2230%22%20as%3D%22alternateBounds%22%2F%3E%3C%2FmxGeometry%3E%3C%2FmxCell%3E%3CmxCell%20id%3D%2214%22%20value%3D%22phoneNumber%20%3A%20VARCHAR(45)%22%20style%3D%22shape%3DpartialRectangle%3Bconnectable%3D0%3BfillColor%3Dnone%3Btop%3D0%3Bleft%3D0%3Bbottom%3D0%3Bright%3D0%3Balign%3Dleft%3BspacingLeft%3D6%3Boverflow%3Dhidden%3BwhiteSpace%3Dwrap%3Bhtml%3D1%3B%22%20vertex%3D%221%22%20parent%3D%2212%22%3E%3CmxGeometry%20x%3D%2230%22%20width%3D%22180%22%20height%3D%2230%22%20as%3D%22geometry%22%3E%3CmxRectangle%20width%3D%22180%22%20height%3D%2230%22%20as%3D%22alternateBounds%22%2F%3E%3C%2FmxGeometry%3E%3C%2FmxCell%3E%3CmxCell%20id%3D%2215%22%20value%3D%22%22%20style%3D%22shape%3DtableRow%3Bhorizontal%3D0%3BstartSize%3D0%3BswimlaneHead%3D0%3BswimlaneBody%3D0%3BfillColor%3Dnone%3Bcollapsible%3D0%3BdropTarget%3D0%3Bpoints%3D%5B%5B0%2C0.5%5D%2C%5B1%2C0.5%5D%5D%3BportConstraint%3Deastwest%3Btop%3D0%3Bleft%3D0%3Bright%3D0%3Bbottom%3D0%3B%22%20vertex%3D%221%22%20parent%3D%222%22%3E%3CmxGeometry%20y%3D%22150%22%20width%3D%22210%22%20height%3D%2230%22%20as%3D%22geometry%22%2F%3E%3C%2FmxCell%3E%3CmxCell%20id%3D%2216%22%20value%3D%22%22%20style%3D%22shape%3DpartialRectangle%3Bconnectable%3D0%3BfillColor%3Dnone%3Btop%3D0%3Bleft%3D0%3Bbottom%3D0%3Bright%3D0%3Beditable%3D1%3Boverflow%3Dhidden%3BwhiteSpace%3Dwrap%3Bhtml%3D1%3B%22%20vertex%3D%221%22%20parent%3D%2215%22%3E%3CmxGeometry%20width%3D%2230%22%20height%3D%2230%22%20as%3D%22geometry%22%3E%3CmxRectangle%20width%3D%2230%22%20height%3D%2230%22%20as%3D%22alternateBounds%22%2F%3E%3C%2FmxGeometry%3E%3C%2FmxCell%3E%3CmxCell%20id%3D%2217%22%20value%3D%22email%20%3A%20VARCHAR(45)%22%20style%3D%22shape%3DpartialRectangle%3Bconnectable%3D0%3BfillColor%3Dnone%3Btop%3D0%3Bleft%3D0%3Bbottom%3D0%3Bright%3D0%3Balign%3Dleft%3BspacingLeft%3D6%3Boverflow%3Dhidden%3BwhiteSpace%3Dwrap%3Bhtml%3D1%3B%22%20vertex%3D%221%22%20parent%3D%2215%22%3E%3CmxGeometry%20x%3D%2230%22%20width%3D%22180%22%20height%3D%2230%22%20as%3D%22geometry%22%3E%3CmxRectangle%20width%3D%22180%22%20height%3D%2230%22%20as%3D%22alternateBounds%22%2F%3E%3C%2FmxGeometry%3E%3C%2FmxCell%3E%3CmxCell%20id%3D%2218%22%20value%3D%22%22%20style%3D%22shape%3DtableRow%3Bhorizontal%3D0%3BstartSize%3D0%3BswimlaneHead%3D0%3BswimlaneBody%3D0%3BfillColor%3Dnone%3Bcollapsible%3D0%3BdropTarget%3D0%3Bpoints%3D%5B%5B0%2C0.5%5D%2C%5B1%2C0.5%5D%5D%3BportConstraint%3Deastwest%3Btop%3D0%3Bleft%3D0%3Bright%3D0%3Bbottom%3D0%3B%22%20vertex%3D%221%22%20parent%3D%222%22%3E%3CmxGeometry%20y%3D%22180%22%20width%3D%22210%22%20height%3D%2230%22%20as%3D%22geometry%22%2F%3E%3C%2FmxCell%3E%3CmxCell%20id%3D%2219%22%20value%3D%22%22%20style%3D%22shape%3DpartialRectangle%3Bconnectable%3D0%3BfillColor%3Dnone%3Btop%3D0%3Bleft%3D0%3Bbottom%3D0%3Bright%3D0%3Beditable%3D1%3Boverflow%3Dhidden%3BwhiteSpace%3Dwrap%3Bhtml%3D1%3B%22%20vertex%3D%221%22%20parent%3D%2218%22%3E%3CmxGeometry%20width%3D%2230%22%20height%3D%2230%22%20as%3D%22geometry%22%3E%3CmxRectangle%20width%3D%2230%22%20height%3D%2230%22%20as%3D%22alternateBounds%22%2F%3E%3C%2FmxGeometry%3E%3C%2FmxCell%3E%3CmxCell%20id%3D%2220%22%20value%3D%22role%20%3A%20VARCHAR(45)%22%20style%3D%22shape%3DpartialRectangle%3Bconnectable%3D0%3BfillColor%3Dnone%3Btop%3D0%3Bleft%3D0%3Bbottom%3D0%3Bright%3D0%3Balign%3Dleft%3BspacingLeft%3D6%3Boverflow%3Dhidden%3BwhiteSpace%3Dwrap%3Bhtml%3D1%3B%22%20vertex%3D%221%22%20parent%3D%2218%22%3E%3CmxGeometry%20x%3D%2230%22%20width%3D%22180%22%20height%3D%2230%22%20as%3D%22geometry%22%3E%3CmxRectangle%20width%3D%22180%22%20height%3D%2230%22%20as%3D%22alternateBounds%22%2F%3E%3C%2FmxGeometry%3E%3C%2FmxCell%3E%3C%2Froot%3E%3C%2FmxGraphModel%3E&lt;/span&gt;" style="shape=partialRectangle;connectable=0;fillColor=none;top=0;left=0;bottom=0;right=0;align=left;spacingLeft=6;fontStyle=5;overflow=hidden;whiteSpace=wrap;html=1;" vertex="1" parent="tgHYuU34AAN5j4zCokdV-64">
          <mxGeometry x="30" width="200" height="30" as="geometry">
            <mxRectangle width="200" height="30" as="alternateBounds" />
          </mxGeometry>
        </mxCell>
        <mxCell id="tgHYuU34AAN5j4zCokdV-67" value="" style="shape=tableRow;horizontal=0;startSize=0;swimlaneHead=0;swimlaneBody=0;fillColor=none;collapsible=0;dropTarget=0;points=[[0,0.5],[1,0.5]];portConstraint=eastwest;top=0;left=0;right=0;bottom=0;" vertex="1" parent="tgHYuU34AAN5j4zCokdV-63">
          <mxGeometry y="60" width="230" height="30" as="geometry" />
        </mxCell>
        <mxCell id="tgHYuU34AAN5j4zCokdV-68" value="FK" style="shape=partialRectangle;connectable=0;fillColor=none;top=0;left=0;bottom=0;right=0;editable=1;overflow=hidden;whiteSpace=wrap;html=1;" vertex="1" parent="tgHYuU34AAN5j4zCokdV-67">
          <mxGeometry width="30" height="30" as="geometry">
            <mxRectangle width="30" height="30" as="alternateBounds" />
          </mxGeometry>
        </mxCell>
        <mxCell id="tgHYuU34AAN5j4zCokdV-69" value="userId :&amp;nbsp;VARCHAR(45)" style="shape=partialRectangle;connectable=0;fillColor=none;top=0;left=0;bottom=0;right=0;align=left;spacingLeft=6;overflow=hidden;whiteSpace=wrap;html=1;" vertex="1" parent="tgHYuU34AAN5j4zCokdV-67">
          <mxGeometry x="30" width="200" height="30" as="geometry">
            <mxRectangle width="200" height="30" as="alternateBounds" />
          </mxGeometry>
        </mxCell>
        <mxCell id="tgHYuU34AAN5j4zCokdV-82" value="Item" style="shape=table;startSize=30;container=1;collapsible=1;childLayout=tableLayout;fixedRows=1;rowLines=0;fontStyle=1;align=center;resizeLast=1;html=1;" vertex="1" parent="tgHYuU34AAN5j4zCokdV-126">
          <mxGeometry x="350" width="230" height="240" as="geometry" />
        </mxCell>
        <mxCell id="tgHYuU34AAN5j4zCokdV-83" value="" style="shape=tableRow;horizontal=0;startSize=0;swimlaneHead=0;swimlaneBody=0;fillColor=none;collapsible=0;dropTarget=0;points=[[0,0.5],[1,0.5]];portConstraint=eastwest;top=0;left=0;right=0;bottom=1;" vertex="1" parent="tgHYuU34AAN5j4zCokdV-82">
          <mxGeometry y="30" width="230" height="30" as="geometry" />
        </mxCell>
        <mxCell id="tgHYuU34AAN5j4zCokdV-84" value="PK" style="shape=partialRectangle;connectable=0;fillColor=none;top=0;left=0;bottom=0;right=0;fontStyle=1;overflow=hidden;whiteSpace=wrap;html=1;" vertex="1" parent="tgHYuU34AAN5j4zCokdV-83">
          <mxGeometry width="30" height="30" as="geometry">
            <mxRectangle width="30" height="30" as="alternateBounds" />
          </mxGeometry>
        </mxCell>
        <mxCell id="tgHYuU34AAN5j4zCokdV-85" value="ItemId : INT" style="shape=partialRectangle;connectable=0;fillColor=none;top=0;left=0;bottom=0;right=0;align=left;spacingLeft=6;fontStyle=5;overflow=hidden;whiteSpace=wrap;html=1;" vertex="1" parent="tgHYuU34AAN5j4zCokdV-83">
          <mxGeometry x="30" width="200" height="30" as="geometry">
            <mxRectangle width="200" height="30" as="alternateBounds" />
          </mxGeometry>
        </mxCell>
        <mxCell id="tgHYuU34AAN5j4zCokdV-86" value="" style="shape=tableRow;horizontal=0;startSize=0;swimlaneHead=0;swimlaneBody=0;fillColor=none;collapsible=0;dropTarget=0;points=[[0,0.5],[1,0.5]];portConstraint=eastwest;top=0;left=0;right=0;bottom=0;" vertex="1" parent="tgHYuU34AAN5j4zCokdV-82">
          <mxGeometry y="60" width="230" height="30" as="geometry" />
        </mxCell>
        <mxCell id="tgHYuU34AAN5j4zCokdV-87" value="FK" style="shape=partialRectangle;connectable=0;fillColor=none;top=0;left=0;bottom=0;right=0;editable=1;overflow=hidden;whiteSpace=wrap;html=1;" vertex="1" parent="tgHYuU34AAN5j4zCokdV-86">
          <mxGeometry width="30" height="30" as="geometry">
            <mxRectangle width="30" height="30" as="alternateBounds" />
          </mxGeometry>
        </mxCell>
        <mxCell id="tgHYuU34AAN5j4zCokdV-88" value="bussinessManId : VARCHAR(45)" style="shape=partialRectangle;connectable=0;fillColor=none;top=0;left=0;bottom=0;right=0;align=left;spacingLeft=6;overflow=hidden;whiteSpace=wrap;html=1;" vertex="1" parent="tgHYuU34AAN5j4zCokdV-86">
          <mxGeometry x="30" width="200" height="30" as="geometry">
            <mxRectangle width="200" height="30" as="alternateBounds" />
          </mxGeometry>
        </mxCell>
        <mxCell id="tgHYuU34AAN5j4zCokdV-89" value="" style="shape=tableRow;horizontal=0;startSize=0;swimlaneHead=0;swimlaneBody=0;fillColor=none;collapsible=0;dropTarget=0;points=[[0,0.5],[1,0.5]];portConstraint=eastwest;top=0;left=0;right=0;bottom=0;" vertex="1" parent="tgHYuU34AAN5j4zCokdV-82">
          <mxGeometry y="90" width="230" height="30" as="geometry" />
        </mxCell>
        <mxCell id="tgHYuU34AAN5j4zCokdV-90" value="" style="shape=partialRectangle;connectable=0;fillColor=none;top=0;left=0;bottom=0;right=0;editable=1;overflow=hidden;whiteSpace=wrap;html=1;" vertex="1" parent="tgHYuU34AAN5j4zCokdV-89">
          <mxGeometry width="30" height="30" as="geometry">
            <mxRectangle width="30" height="30" as="alternateBounds" />
          </mxGeometry>
        </mxCell>
        <mxCell id="tgHYuU34AAN5j4zCokdV-91" value="itemName : VARCHAR(100)" style="shape=partialRectangle;connectable=0;fillColor=none;top=0;left=0;bottom=0;right=0;align=left;spacingLeft=6;overflow=hidden;whiteSpace=wrap;html=1;" vertex="1" parent="tgHYuU34AAN5j4zCokdV-89">
          <mxGeometry x="30" width="200" height="30" as="geometry">
            <mxRectangle width="200" height="30" as="alternateBounds" />
          </mxGeometry>
        </mxCell>
        <mxCell id="tgHYuU34AAN5j4zCokdV-92" value="" style="shape=tableRow;horizontal=0;startSize=0;swimlaneHead=0;swimlaneBody=0;fillColor=none;collapsible=0;dropTarget=0;points=[[0,0.5],[1,0.5]];portConstraint=eastwest;top=0;left=0;right=0;bottom=0;" vertex="1" parent="tgHYuU34AAN5j4zCokdV-82">
          <mxGeometry y="120" width="230" height="30" as="geometry" />
        </mxCell>
        <mxCell id="tgHYuU34AAN5j4zCokdV-93" value="" style="shape=partialRectangle;connectable=0;fillColor=none;top=0;left=0;bottom=0;right=0;editable=1;overflow=hidden;whiteSpace=wrap;html=1;" vertex="1" parent="tgHYuU34AAN5j4zCokdV-92">
          <mxGeometry width="30" height="30" as="geometry">
            <mxRectangle width="30" height="30" as="alternateBounds" />
          </mxGeometry>
        </mxCell>
        <mxCell id="tgHYuU34AAN5j4zCokdV-94" value="itemType : VARCHAR(45)" style="shape=partialRectangle;connectable=0;fillColor=none;top=0;left=0;bottom=0;right=0;align=left;spacingLeft=6;overflow=hidden;whiteSpace=wrap;html=1;" vertex="1" parent="tgHYuU34AAN5j4zCokdV-92">
          <mxGeometry x="30" width="200" height="30" as="geometry">
            <mxRectangle width="200" height="30" as="alternateBounds" />
          </mxGeometry>
        </mxCell>
        <mxCell id="tgHYuU34AAN5j4zCokdV-95" value="" style="shape=tableRow;horizontal=0;startSize=0;swimlaneHead=0;swimlaneBody=0;fillColor=none;collapsible=0;dropTarget=0;points=[[0,0.5],[1,0.5]];portConstraint=eastwest;top=0;left=0;right=0;bottom=0;" vertex="1" parent="tgHYuU34AAN5j4zCokdV-82">
          <mxGeometry y="150" width="230" height="30" as="geometry" />
        </mxCell>
        <mxCell id="tgHYuU34AAN5j4zCokdV-96" value="" style="shape=partialRectangle;connectable=0;fillColor=none;top=0;left=0;bottom=0;right=0;editable=1;overflow=hidden;whiteSpace=wrap;html=1;" vertex="1" parent="tgHYuU34AAN5j4zCokdV-95">
          <mxGeometry width="30" height="30" as="geometry">
            <mxRectangle width="30" height="30" as="alternateBounds" />
          </mxGeometry>
        </mxCell>
        <mxCell id="tgHYuU34AAN5j4zCokdV-97" value="itemPrice : INT" style="shape=partialRectangle;connectable=0;fillColor=none;top=0;left=0;bottom=0;right=0;align=left;spacingLeft=6;overflow=hidden;whiteSpace=wrap;html=1;" vertex="1" parent="tgHYuU34AAN5j4zCokdV-95">
          <mxGeometry x="30" width="200" height="30" as="geometry">
            <mxRectangle width="200" height="30" as="alternateBounds" />
          </mxGeometry>
        </mxCell>
        <mxCell id="tgHYuU34AAN5j4zCokdV-98" value="" style="shape=tableRow;horizontal=0;startSize=0;swimlaneHead=0;swimlaneBody=0;fillColor=none;collapsible=0;dropTarget=0;points=[[0,0.5],[1,0.5]];portConstraint=eastwest;top=0;left=0;right=0;bottom=0;" vertex="1" parent="tgHYuU34AAN5j4zCokdV-82">
          <mxGeometry y="180" width="230" height="30" as="geometry" />
        </mxCell>
        <mxCell id="tgHYuU34AAN5j4zCokdV-99" value="" style="shape=partialRectangle;connectable=0;fillColor=none;top=0;left=0;bottom=0;right=0;editable=1;overflow=hidden;whiteSpace=wrap;html=1;" vertex="1" parent="tgHYuU34AAN5j4zCokdV-98">
          <mxGeometry width="30" height="30" as="geometry">
            <mxRectangle width="30" height="30" as="alternateBounds" />
          </mxGeometry>
        </mxCell>
        <mxCell id="tgHYuU34AAN5j4zCokdV-100" value="itemCount : INT" style="shape=partialRectangle;connectable=0;fillColor=none;top=0;left=0;bottom=0;right=0;align=left;spacingLeft=6;overflow=hidden;whiteSpace=wrap;html=1;" vertex="1" parent="tgHYuU34AAN5j4zCokdV-98">
          <mxGeometry x="30" width="200" height="30" as="geometry">
            <mxRectangle width="200" height="30" as="alternateBounds" />
          </mxGeometry>
        </mxCell>
        <mxCell id="tgHYuU34AAN5j4zCokdV-101" value="" style="shape=tableRow;horizontal=0;startSize=0;swimlaneHead=0;swimlaneBody=0;fillColor=none;collapsible=0;dropTarget=0;points=[[0,0.5],[1,0.5]];portConstraint=eastwest;top=0;left=0;right=0;bottom=0;" vertex="1" parent="tgHYuU34AAN5j4zCokdV-82">
          <mxGeometry y="210" width="230" height="30" as="geometry" />
        </mxCell>
        <mxCell id="tgHYuU34AAN5j4zCokdV-102" value="" style="shape=partialRectangle;connectable=0;fillColor=none;top=0;left=0;bottom=0;right=0;editable=1;overflow=hidden;whiteSpace=wrap;html=1;" vertex="1" parent="tgHYuU34AAN5j4zCokdV-101">
          <mxGeometry width="30" height="30" as="geometry">
            <mxRectangle width="30" height="30" as="alternateBounds" />
          </mxGeometry>
        </mxCell>
        <mxCell id="tgHYuU34AAN5j4zCokdV-103" value="itemManufacturingDate : DATE" style="shape=partialRectangle;connectable=0;fillColor=none;top=0;left=0;bottom=0;right=0;align=left;spacingLeft=6;overflow=hidden;whiteSpace=wrap;html=1;" vertex="1" parent="tgHYuU34AAN5j4zCokdV-101">
          <mxGeometry x="30" width="200" height="30" as="geometry">
            <mxRectangle width="200" height="30" as="alternateBounds" />
          </mxGeometry>
        </mxCell>
        <mxCell id="tgHYuU34AAN5j4zCokdV-104" value="Session" style="shape=table;startSize=30;container=1;collapsible=1;childLayout=tableLayout;fixedRows=1;rowLines=0;fontStyle=1;align=center;resizeLast=1;html=1;" vertex="1" parent="tgHYuU34AAN5j4zCokdV-126">
          <mxGeometry x="330" y="370" width="180" height="120" as="geometry" />
        </mxCell>
        <mxCell id="tgHYuU34AAN5j4zCokdV-105" value="" style="shape=tableRow;horizontal=0;startSize=0;swimlaneHead=0;swimlaneBody=0;fillColor=none;collapsible=0;dropTarget=0;points=[[0,0.5],[1,0.5]];portConstraint=eastwest;top=0;left=0;right=0;bottom=1;" vertex="1" parent="tgHYuU34AAN5j4zCokdV-104">
          <mxGeometry y="30" width="180" height="30" as="geometry" />
        </mxCell>
        <mxCell id="tgHYuU34AAN5j4zCokdV-106" value="PK" style="shape=partialRectangle;connectable=0;fillColor=none;top=0;left=0;bottom=0;right=0;fontStyle=1;overflow=hidden;whiteSpace=wrap;html=1;" vertex="1" parent="tgHYuU34AAN5j4zCokdV-105">
          <mxGeometry width="30" height="30" as="geometry">
            <mxRectangle width="30" height="30" as="alternateBounds" />
          </mxGeometry>
        </mxCell>
        <mxCell id="tgHYuU34AAN5j4zCokdV-107" value="sessionId :&amp;nbsp;INT" style="shape=partialRectangle;connectable=0;fillColor=none;top=0;left=0;bottom=0;right=0;align=left;spacingLeft=6;fontStyle=5;overflow=hidden;whiteSpace=wrap;html=1;" vertex="1" parent="tgHYuU34AAN5j4zCokdV-105">
          <mxGeometry x="30" width="150" height="30" as="geometry">
            <mxRectangle width="150" height="30" as="alternateBounds" />
          </mxGeometry>
        </mxCell>
        <mxCell id="tgHYuU34AAN5j4zCokdV-108" value="" style="shape=tableRow;horizontal=0;startSize=0;swimlaneHead=0;swimlaneBody=0;fillColor=none;collapsible=0;dropTarget=0;points=[[0,0.5],[1,0.5]];portConstraint=eastwest;top=0;left=0;right=0;bottom=0;" vertex="1" parent="tgHYuU34AAN5j4zCokdV-104">
          <mxGeometry y="60" width="180" height="30" as="geometry" />
        </mxCell>
        <mxCell id="tgHYuU34AAN5j4zCokdV-109" value="FK" style="shape=partialRectangle;connectable=0;fillColor=none;top=0;left=0;bottom=0;right=0;editable=1;overflow=hidden;whiteSpace=wrap;html=1;" vertex="1" parent="tgHYuU34AAN5j4zCokdV-108">
          <mxGeometry width="30" height="30" as="geometry">
            <mxRectangle width="30" height="30" as="alternateBounds" />
          </mxGeometry>
        </mxCell>
        <mxCell id="tgHYuU34AAN5j4zCokdV-110" value="userId :&amp;nbsp;VARCHAR(45)" style="shape=partialRectangle;connectable=0;fillColor=none;top=0;left=0;bottom=0;right=0;align=left;spacingLeft=6;overflow=hidden;whiteSpace=wrap;html=1;" vertex="1" parent="tgHYuU34AAN5j4zCokdV-108">
          <mxGeometry x="30" width="150" height="30" as="geometry">
            <mxRectangle width="150" height="30" as="alternateBounds" />
          </mxGeometry>
        </mxCell>
        <mxCell id="tgHYuU34AAN5j4zCokdV-111" value="" style="shape=tableRow;horizontal=0;startSize=0;swimlaneHead=0;swimlaneBody=0;fillColor=none;collapsible=0;dropTarget=0;points=[[0,0.5],[1,0.5]];portConstraint=eastwest;top=0;left=0;right=0;bottom=0;" vertex="1" parent="tgHYuU34AAN5j4zCokdV-104">
          <mxGeometry y="90" width="180" height="30" as="geometry" />
        </mxCell>
        <mxCell id="tgHYuU34AAN5j4zCokdV-112" value="" style="shape=partialRectangle;connectable=0;fillColor=none;top=0;left=0;bottom=0;right=0;editable=1;overflow=hidden;whiteSpace=wrap;html=1;" vertex="1" parent="tgHYuU34AAN5j4zCokdV-111">
          <mxGeometry width="30" height="30" as="geometry">
            <mxRectangle width="30" height="30" as="alternateBounds" />
          </mxGeometry>
        </mxCell>
        <mxCell id="tgHYuU34AAN5j4zCokdV-113" value="role :&amp;nbsp;VARCHAR(45)" style="shape=partialRectangle;connectable=0;fillColor=none;top=0;left=0;bottom=0;right=0;align=left;spacingLeft=6;overflow=hidden;whiteSpace=wrap;html=1;" vertex="1" parent="tgHYuU34AAN5j4zCokdV-111">
          <mxGeometry x="30" width="150" height="30" as="geometry">
            <mxRectangle width="150" height="30" as="alternateBounds" />
          </mxGeometry>
        </mxCell>
        <mxCell id="tgHYuU34AAN5j4zCokdV-120" style="edgeStyle=orthogonalEdgeStyle;rounded=0;orthogonalLoop=1;jettySize=auto;html=1;endArrow=ERone;endFill=0;" edge="1" parent="tgHYuU34AAN5j4zCokdV-126" source="tgHYuU34AAN5j4zCokdV-35" target="tgHYuU34AAN5j4zCokdV-104">
          <mxGeometry relative="1" as="geometry" />
        </mxCell>
        <mxCell id="tgHYuU34AAN5j4zCokdV-121" value="0, 1" style="edgeLabel;html=1;align=center;verticalAlign=middle;resizable=0;points=[];" connectable="0" vertex="1" parent="tgHYuU34AAN5j4zCokdV-120">
          <mxGeometry x="0.6212" relative="1" as="geometry">
            <mxPoint y="-15" as="offset" />
          </mxGeometry>
        </mxCell>
        <mxCell id="tgHYuU34AAN5j4zCokdV-122" value="1" style="edgeLabel;html=1;align=center;verticalAlign=middle;resizable=0;points=[];" connectable="0" vertex="1" parent="tgHYuU34AAN5j4zCokdV-120">
          <mxGeometry x="-0.4091" y="1" relative="1" as="geometry">
            <mxPoint x="-12" y="-14" as="offset" />
          </mxGeometry>
        </mxCell>
        <mxCell id="tgHYuU34AAN5j4zCokdV-123" style="edgeStyle=orthogonalEdgeStyle;rounded=0;orthogonalLoop=1;jettySize=auto;html=1;endArrow=ERoneToMany;endFill=0;" edge="1" parent="tgHYuU34AAN5j4zCokdV-126" source="tgHYuU34AAN5j4zCokdV-64" target="tgHYuU34AAN5j4zCokdV-82">
          <mxGeometry relative="1" as="geometry" />
        </mxCell>
        <mxCell id="tgHYuU34AAN5j4zCokdV-124" value="1" style="edgeLabel;html=1;align=center;verticalAlign=middle;resizable=0;points=[];" connectable="0" vertex="1" parent="tgHYuU34AAN5j4zCokdV-123">
          <mxGeometry x="-0.7361" y="-1" relative="1" as="geometry">
            <mxPoint y="-16" as="offset" />
          </mxGeometry>
        </mxCell>
        <mxCell id="tgHYuU34AAN5j4zCokdV-125" value="0...*" style="edgeLabel;html=1;align=center;verticalAlign=middle;resizable=0;points=[];" connectable="0" vertex="1" parent="tgHYuU34AAN5j4zCokdV-123">
          <mxGeometry x="0.7361" y="-1" relative="1" as="geometry">
            <mxPoint x="-4" y="-16" as="offset" />
          </mxGeometry>
        </mxCell>
        <mxCell id="tgHYuU34AAN5j4zCokdV-129" value="" style="group" connectable="0" vertex="1" parent="1">
          <mxGeometry x="-3300" y="-4681" width="1180" height="131" as="geometry" />
        </mxCell>
        <mxCell id="tgHYuU34AAN5j4zCokdV-127" value="" style="rounded=0;whiteSpace=wrap;html=1;" vertex="1" parent="tgHYuU34AAN5j4zCokdV-129">
          <mxGeometry width="1180" height="131" as="geometry" />
        </mxCell>
        <mxCell id="tgHYuU34AAN5j4zCokdV-128" value="&lt;font style=&quot;font-size: 48px;&quot;&gt;ERD&lt;/font&gt;" style="text;html=1;align=center;verticalAlign=middle;whiteSpace=wrap;rounded=0;" vertex="1" parent="tgHYuU34AAN5j4zCokdV-129">
          <mxGeometry x="30" y="20.5" width="1120" height="90" as="geometry" />
        </mxCell>
      </root>
    </mxGraphModel>
  </diagram>
  <diagram id="LQKth8DFZmv6iA31gyGV" name="02 클래스다이어그램">
    <mxGraphModel grid="1" page="1" gridSize="10" guides="1" tooltips="1" connect="1" arrows="1" fold="1" pageScale="1" pageWidth="827" pageHeight="1169" math="0" shadow="0">
      <root>
        <mxCell id="0" />
        <mxCell id="1" parent="0" />
        <mxCell id="ry96jN_wbyW-6A9J895k-20" value="" style="rounded=0;whiteSpace=wrap;html=1;" vertex="1" parent="1">
          <mxGeometry x="1410" y="1307.5" width="3880" height="1202.5" as="geometry" />
        </mxCell>
        <mxCell id="w6RqbGa0JhaT6BEguwRT-10" value="" style="group" connectable="0" vertex="1" parent="1">
          <mxGeometry x="3010" y="1330" width="548.8800000000001" height="380.5" as="geometry" />
        </mxCell>
        <mxCell id="DC32Oe_CohKFQxJQUs0B-100" value="BussinessMan Dto" style="text;html=1;align=center;verticalAlign=middle;resizable=0;points=[];autosize=1;strokeColor=none;fillColor=none;" vertex="1" parent="w6RqbGa0JhaT6BEguwRT-10">
          <mxGeometry x="280" y="150" width="120" height="30" as="geometry" />
        </mxCell>
        <mxCell id="w6RqbGa0JhaT6BEguwRT-9" value="" style="group" connectable="0" vertex="1" parent="w6RqbGa0JhaT6BEguwRT-10">
          <mxGeometry width="548.8800000000001" height="380.5" as="geometry" />
        </mxCell>
        <mxCell id="DC32Oe_CohKFQxJQUs0B-98" value="&lt;p style=&quot;margin:0px;margin-top:4px;text-align:center;&quot;&gt;&lt;b&gt;BussinessMan Class&lt;/b&gt;&lt;/p&gt;&lt;hr size=&quot;1&quot;&gt;&lt;div&gt;&amp;nbsp;&lt;b&gt;bussinessMan_id : String&lt;/b&gt;&lt;/div&gt;&lt;p style=&quot;margin:0px;margin-left:4px;&quot;&gt;&lt;u&gt;user_id : String&lt;/u&gt;&lt;/p&gt;" style="verticalAlign=top;align=left;overflow=fill;fontSize=12;fontFamily=Helvetica;html=1;whiteSpace=wrap;" vertex="1" parent="w6RqbGa0JhaT6BEguwRT-9">
          <mxGeometry x="280" y="182.6500000000001" width="190" height="90" as="geometry" />
        </mxCell>
        <mxCell id="w6RqbGa0JhaT6BEguwRT-8" value="" style="group" connectable="0" vertex="1" parent="w6RqbGa0JhaT6BEguwRT-9">
          <mxGeometry width="548.8800000000001" height="380.5" as="geometry" />
        </mxCell>
        <mxCell id="TxUqmTtOGlN5Qr08p6-o-65" value="" style="group" connectable="0" vertex="1" parent="w6RqbGa0JhaT6BEguwRT-8">
          <mxGeometry x="278.8800000000001" width="270" height="380.5" as="geometry" />
        </mxCell>
        <mxCell id="8QCm501qEFq_NcqXzooc-174" value="&lt;p style=&quot;margin:0px;margin-top:4px;text-align:center;&quot;&gt;&amp;lt;&amp;lt;interface&amp;gt;&amp;gt;&lt;/p&gt;&lt;p style=&quot;margin:0px;margin-top:4px;text-align:center;&quot;&gt;BussinessManDao&lt;/p&gt;&lt;hr size=&quot;1&quot;&gt;&lt;p style=&quot;margin: 0px 0px 0px 4px;&quot;&gt;&lt;br&gt;&lt;/p&gt;&lt;hr size=&quot;1&quot;&gt;&lt;p style=&quot;margin:0px;margin-left:4px;&quot;&gt;select2(String id): BussinessMan&lt;/p&gt;" style="verticalAlign=top;align=left;overflow=fill;fontSize=12;fontFamily=Helvetica;html=1;whiteSpace=wrap;" vertex="1" parent="TxUqmTtOGlN5Qr08p6-o-65">
          <mxGeometry x="-2.0799999999999983" y="13.5" width="192.08" height="103.88" as="geometry" />
        </mxCell>
        <mxCell id="8QCm501qEFq_NcqXzooc-175" value="유저채팅&lt;br&gt;테이블" style="shape=cylinder3;whiteSpace=wrap;html=1;boundedLbl=1;backgroundOutline=1;size=15;" vertex="1" parent="TxUqmTtOGlN5Qr08p6-o-65">
          <mxGeometry x="214.5516211338603" y="43.49999999999994" width="55.448378866139755" height="70.00000000000003" as="geometry" />
        </mxCell>
        <mxCell id="8QCm501qEFq_NcqXzooc-176" value="" style="endArrow=none;html=1;rounded=0;" edge="1" parent="TxUqmTtOGlN5Qr08p6-o-65" source="8QCm501qEFq_NcqXzooc-174" target="8QCm501qEFq_NcqXzooc-175">
          <mxGeometry width="50" height="50" relative="1" as="geometry">
            <mxPoint x="-308.1165598357084" y="1222.3500000000004" as="sourcePoint" />
            <mxPoint x="-282.84554110398904" y="1222.3500000000004" as="targetPoint" />
          </mxGeometry>
        </mxCell>
        <mxCell id="8QCm501qEFq_NcqXzooc-177" value="BussinessManDao" style="text;html=1;align=center;verticalAlign=middle;resizable=0;points=[];autosize=1;strokeColor=none;fillColor=none;" vertex="1" parent="TxUqmTtOGlN5Qr08p6-o-65">
          <mxGeometry x="-2.0799999999999983" y="-16.499999999999996" width="120" height="30" as="geometry" />
        </mxCell>
        <mxCell id="D2N0wtSz5P0G-kbIvdKz-11" style="edgeStyle=orthogonalEdgeStyle;rounded=0;orthogonalLoop=1;jettySize=auto;html=1;dashed=1;endArrow=open;endFill=0;" edge="1" parent="w6RqbGa0JhaT6BEguwRT-8" source="D2N0wtSz5P0G-kbIvdKz-9" target="8QCm501qEFq_NcqXzooc-174">
          <mxGeometry relative="1" as="geometry" />
        </mxCell>
        <mxCell id="BwgdJF3p_1gNqDdOXDI_-5" value="Implements" style="edgeLabel;html=1;align=center;verticalAlign=middle;resizable=0;points=[];" vertex="1" connectable="0" parent="D2N0wtSz5P0G-kbIvdKz-11">
          <mxGeometry x="0.0238" y="-4" relative="1" as="geometry">
            <mxPoint x="-3" y="-1" as="offset" />
          </mxGeometry>
        </mxCell>
        <mxCell id="D2N0wtSz5P0G-kbIvdKz-9" value="&lt;p style=&quot;margin:0px;margin-top:4px;text-align:center;&quot;&gt;&lt;span style=&quot;background-color: initial;&quot;&gt;BussinessManDaoImpl Class&lt;/span&gt;&lt;br&gt;&lt;/p&gt;&lt;hr size=&quot;1&quot;&gt;&lt;p style=&quot;margin: 0px 0px 0px 4px;&quot;&gt;- instance: BussinessManDao&lt;/p&gt;&lt;hr size=&quot;1&quot;&gt;&lt;p style=&quot;margin:0px;margin-left:4px;&quot;&gt;+ getInstance(): BussinessManDao&lt;/p&gt;&lt;p style=&quot;margin:0px;margin-left:4px;&quot;&gt;- BussinessManDaoImpl()&lt;/p&gt;" style="verticalAlign=top;align=left;overflow=fill;fontSize=12;fontFamily=Helvetica;html=1;whiteSpace=wrap;" vertex="1" parent="w6RqbGa0JhaT6BEguwRT-8">
          <mxGeometry y="13.5" width="192.08" height="100" as="geometry" />
        </mxCell>
        <mxCell id="8QCm501qEFq_NcqXzooc-14" value="Presentation Layer(프레젠테이션 계층)&lt;br&gt;- 사용자의 요청사항을 받아서 해당 서비스로 연결해주고 처리 결과를 사용자에게 알려주는 영역" style="rounded=0;whiteSpace=wrap;html=1;" vertex="1" parent="1">
          <mxGeometry x="40" y="1230" width="1383.88" height="50" as="geometry" />
        </mxCell>
        <mxCell id="w6RqbGa0JhaT6BEguwRT-28" value="" style="group" connectable="0" vertex="1" parent="1">
          <mxGeometry x="3670" y="1340" width="570" height="395" as="geometry" />
        </mxCell>
        <mxCell id="8QCm501qEFq_NcqXzooc-21" value="" style="rounded=0;whiteSpace=wrap;html=1;" vertex="1" parent="1">
          <mxGeometry x="43" y="1370" width="618.88" height="580" as="geometry" />
        </mxCell>
        <mxCell id="w6RqbGa0JhaT6BEguwRT-7" value="" style="group" connectable="0" vertex="1" parent="1">
          <mxGeometry x="2450" y="1330" width="510" height="395" as="geometry" />
        </mxCell>
        <mxCell id="TxUqmTtOGlN5Qr08p6-o-30" value="" style="group" connectable="0" vertex="1" parent="w6RqbGa0JhaT6BEguwRT-7">
          <mxGeometry x="240" width="260" height="395" as="geometry" />
        </mxCell>
        <mxCell id="TxUqmTtOGlN5Qr08p6-o-25" value="" style="group" connectable="0" vertex="1" parent="TxUqmTtOGlN5Qr08p6-o-30">
          <mxGeometry y="180" width="157.5" height="155" as="geometry" />
        </mxCell>
        <mxCell id="8QCm501qEFq_NcqXzooc-7" value="&lt;p style=&quot;margin:0px;margin-top:4px;text-align:center;&quot;&gt;&lt;b&gt;User Class&lt;/b&gt;&lt;/p&gt;&lt;hr size=&quot;1&quot;&gt;&lt;p style=&quot;margin:0px;margin-left:4px;&quot;&gt;&lt;b&gt;user_id : String&lt;/b&gt;&lt;/p&gt;&lt;div&gt;&amp;nbsp;password : String&lt;/div&gt;&lt;div&gt;&lt;span style=&quot;background-color: initial;&quot;&gt;&amp;nbsp;name : String&lt;/span&gt;&lt;/div&gt;&lt;div&gt;&amp;nbsp;phone_number : String&lt;/div&gt;&lt;div&gt;&amp;nbsp;email : String&lt;/div&gt;&lt;div&gt;&amp;nbsp;role : String&lt;/div&gt;&lt;div&gt;&lt;br style=&quot;text-wrap: nowrap;&quot;&gt;&lt;/div&gt;&lt;p style=&quot;margin:0px;margin-left:4px;&quot;&gt;&lt;br&gt;&lt;/p&gt;" style="verticalAlign=top;align=left;overflow=fill;fontSize=12;fontFamily=Helvetica;html=1;whiteSpace=wrap;" vertex="1" parent="TxUqmTtOGlN5Qr08p6-o-25">
          <mxGeometry y="30" width="157.5" height="125" as="geometry" />
        </mxCell>
        <mxCell id="8QCm501qEFq_NcqXzooc-40" value="UserDto" style="text;html=1;align=center;verticalAlign=middle;resizable=0;points=[];autosize=1;strokeColor=none;fillColor=none;" vertex="1" parent="TxUqmTtOGlN5Qr08p6-o-25">
          <mxGeometry x="0.5" width="70" height="30" as="geometry" />
        </mxCell>
        <mxCell id="8QCm501qEFq_NcqXzooc-151" value="&lt;p style=&quot;margin:0px;margin-top:4px;text-align:center;&quot;&gt;&lt;b&gt;&amp;lt;&amp;lt;interface&amp;gt;&amp;gt;&lt;/b&gt;&lt;/p&gt;&lt;p style=&quot;margin:0px;margin-top:4px;text-align:center;&quot;&gt;&lt;b&gt;UserDao&lt;/b&gt;&lt;/p&gt;&lt;hr size=&quot;1&quot;&gt;&lt;p style=&quot;margin:0px;margin-left:4px;&quot;&gt;&lt;br&gt;&lt;/p&gt;&lt;hr size=&quot;1&quot;&gt;&lt;p style=&quot;margin:0px;margin-left:4px;&quot;&gt;&lt;br&gt;&lt;/p&gt;" style="verticalAlign=top;align=left;overflow=fill;fontSize=12;fontFamily=Helvetica;html=1;whiteSpace=wrap;" vertex="1" parent="TxUqmTtOGlN5Qr08p6-o-30">
          <mxGeometry y="30" width="157.75" height="100" as="geometry" />
        </mxCell>
        <mxCell id="8QCm501qEFq_NcqXzooc-159" value="UserDao" style="text;html=1;align=center;verticalAlign=middle;resizable=0;points=[];autosize=1;strokeColor=none;fillColor=none;" vertex="1" parent="TxUqmTtOGlN5Qr08p6-o-30">
          <mxGeometry width="70" height="30" as="geometry" />
        </mxCell>
        <mxCell id="8QCm501qEFq_NcqXzooc-155" value="회원&lt;br&gt;테이블" style="shape=cylinder3;whiteSpace=wrap;html=1;boundedLbl=1;backgroundOutline=1;size=15;" vertex="1" parent="TxUqmTtOGlN5Qr08p6-o-30">
          <mxGeometry x="207" y="50" width="53" height="70" as="geometry" />
        </mxCell>
        <mxCell id="8QCm501qEFq_NcqXzooc-162" value="" style="endArrow=none;html=1;rounded=0;entryX=0;entryY=0.5;entryDx=0;entryDy=0;entryPerimeter=0;" edge="1" parent="TxUqmTtOGlN5Qr08p6-o-30" source="8QCm501qEFq_NcqXzooc-151" target="8QCm501qEFq_NcqXzooc-155">
          <mxGeometry width="50" height="50" relative="1" as="geometry">
            <mxPoint x="365.0500000000002" y="571.4499999999998" as="sourcePoint" />
            <mxPoint x="403.0500000000002" y="571.4499999999998" as="targetPoint" />
          </mxGeometry>
        </mxCell>
        <mxCell id="D2N0wtSz5P0G-kbIvdKz-7" style="edgeStyle=orthogonalEdgeStyle;rounded=0;orthogonalLoop=1;jettySize=auto;html=1;dashed=1;endArrow=open;endFill=0;" edge="1" parent="w6RqbGa0JhaT6BEguwRT-7" source="D2N0wtSz5P0G-kbIvdKz-5" target="8QCm501qEFq_NcqXzooc-151">
          <mxGeometry relative="1" as="geometry" />
        </mxCell>
        <mxCell id="D2N0wtSz5P0G-kbIvdKz-8" value="Implements" style="edgeLabel;html=1;align=center;verticalAlign=middle;resizable=0;points=[];" connectable="0" vertex="1" parent="D2N0wtSz5P0G-kbIvdKz-7">
          <mxGeometry x="0.1821" y="-1" relative="1" as="geometry">
            <mxPoint x="-12" y="-16" as="offset" />
          </mxGeometry>
        </mxCell>
        <mxCell id="D2N0wtSz5P0G-kbIvdKz-5" value="&lt;p style=&quot;margin:0px;margin-top:4px;text-align:center;&quot;&gt;&lt;b style=&quot;background-color: initial;&quot;&gt;UserDaoImpl Class&lt;/b&gt;&lt;br&gt;&lt;/p&gt;&lt;hr size=&quot;1&quot;&gt;&lt;p style=&quot;margin:0px;margin-left:4px;&quot;&gt;- instance: UserDao&lt;/p&gt;&lt;hr size=&quot;1&quot;&gt;&lt;p style=&quot;margin:0px;margin-left:4px;&quot;&gt;+ getInstance(): UserDao&lt;/p&gt;&lt;p style=&quot;margin:0px;margin-left:4px;&quot;&gt;- UserDaoImpl()&lt;/p&gt;" style="verticalAlign=top;align=left;overflow=fill;fontSize=12;fontFamily=Helvetica;html=1;whiteSpace=wrap;" vertex="1" parent="w6RqbGa0JhaT6BEguwRT-7">
          <mxGeometry y="34" width="157.75" height="92" as="geometry" />
        </mxCell>
        <mxCell id="0ncxLKNJgjDSfYJNMYuV-20" style="edgeStyle=orthogonalEdgeStyle;rounded=0;orthogonalLoop=1;jettySize=auto;html=1;endArrow=none;endFill=0;" edge="1" parent="1" source="8QCm501qEFq_NcqXzooc-20" target="8QCm501qEFq_NcqXzooc-111">
          <mxGeometry relative="1" as="geometry" />
        </mxCell>
        <mxCell id="0ncxLKNJgjDSfYJNMYuV-21" style="edgeStyle=orthogonalEdgeStyle;rounded=0;orthogonalLoop=1;jettySize=auto;html=1;entryX=1;entryY=0.5;entryDx=0;entryDy=0;endArrow=none;endFill=0;" edge="1" parent="1" source="8QCm501qEFq_NcqXzooc-20" target="8QCm501qEFq_NcqXzooc-21">
          <mxGeometry relative="1" as="geometry" />
        </mxCell>
        <mxCell id="8QCm501qEFq_NcqXzooc-20" value="&lt;p style=&quot;margin:0px;margin-top:4px;text-align:center;&quot;&gt;&lt;b&gt;FrontController Class&lt;/b&gt;&lt;/p&gt;&lt;hr size=&quot;1&quot;&gt;&lt;p style=&quot;margin:0px;margin-left:4px;&quot;&gt;+ field: Type&lt;/p&gt;&lt;hr size=&quot;1&quot;&gt;&lt;p style=&quot;margin:0px;margin-left:4px;&quot;&gt;+ method(): Type&lt;/p&gt;" style="verticalAlign=top;align=left;overflow=fill;fontSize=12;fontFamily=Helvetica;html=1;whiteSpace=wrap;" vertex="1" parent="1">
          <mxGeometry x="873.75" y="1926" width="160" height="130" as="geometry" />
        </mxCell>
        <mxCell id="TxUqmTtOGlN5Qr08p6-o-67" value="" style="group" connectable="0" vertex="1" parent="1">
          <mxGeometry x="2742.12" y="2759.5" width="299" height="456.25" as="geometry" />
        </mxCell>
        <mxCell id="8QCm501qEFq_NcqXzooc-3" value="Persistence Layer(영속 계층)&lt;br&gt;- DB 연결영역, 왠만해선 바뀌지 않는다" style="rounded=0;whiteSpace=wrap;html=1;" vertex="1" parent="1">
          <mxGeometry x="1970" y="1230" width="2400" height="50" as="geometry" />
        </mxCell>
        <mxCell id="8QCm501qEFq_NcqXzooc-2" value="" style="rounded=0;whiteSpace=wrap;html=1;" vertex="1" parent="1">
          <mxGeometry x="1130.75" y="1354" width="220" height="1126" as="geometry" />
        </mxCell>
        <mxCell id="8QCm501qEFq_NcqXzooc-23" value="&lt;p style=&quot;margin:0px;margin-top:4px;text-align:center;&quot;&gt;&lt;b&gt;login Class&lt;/b&gt;&lt;/p&gt;" style="verticalAlign=top;align=left;overflow=fill;fontSize=12;fontFamily=Helvetica;html=1;whiteSpace=wrap;" vertex="1" parent="1">
          <mxGeometry x="65.5" y="1393" width="155" height="52" as="geometry" />
        </mxCell>
        <mxCell id="0ncxLKNJgjDSfYJNMYuV-14" style="edgeStyle=orthogonalEdgeStyle;rounded=0;orthogonalLoop=1;jettySize=auto;html=1;entryX=1;entryY=0.5;entryDx=0;entryDy=0;endArrow=none;endFill=0;" edge="1" parent="1" source="8QCm501qEFq_NcqXzooc-26" target="8QCm501qEFq_NcqXzooc-23">
          <mxGeometry relative="1" as="geometry" />
        </mxCell>
        <mxCell id="0ncxLKNJgjDSfYJNMYuV-15" style="edgeStyle=orthogonalEdgeStyle;rounded=0;orthogonalLoop=1;jettySize=auto;html=1;entryX=1;entryY=0.5;entryDx=0;entryDy=0;endArrow=none;endFill=0;" edge="1" parent="1" source="8QCm501qEFq_NcqXzooc-26" target="0ncxLKNJgjDSfYJNMYuV-4">
          <mxGeometry relative="1" as="geometry" />
        </mxCell>
        <mxCell id="0ncxLKNJgjDSfYJNMYuV-16" style="edgeStyle=orthogonalEdgeStyle;rounded=0;orthogonalLoop=1;jettySize=auto;html=1;endArrow=none;endFill=0;" edge="1" parent="1" source="8QCm501qEFq_NcqXzooc-26" target="8QCm501qEFq_NcqXzooc-28">
          <mxGeometry relative="1" as="geometry" />
        </mxCell>
        <mxCell id="0ncxLKNJgjDSfYJNMYuV-17" style="edgeStyle=orthogonalEdgeStyle;rounded=0;orthogonalLoop=1;jettySize=auto;html=1;endArrow=none;endFill=0;" edge="1" parent="1" source="8QCm501qEFq_NcqXzooc-26" target="0ncxLKNJgjDSfYJNMYuV-2">
          <mxGeometry relative="1" as="geometry">
            <Array as="points">
              <mxPoint x="316" y="1623" />
              <mxPoint x="316" y="1660" />
            </Array>
          </mxGeometry>
        </mxCell>
        <mxCell id="0ncxLKNJgjDSfYJNMYuV-18" style="edgeStyle=orthogonalEdgeStyle;rounded=0;orthogonalLoop=1;jettySize=auto;html=1;entryX=1;entryY=0.5;entryDx=0;entryDy=0;endArrow=none;endFill=0;" edge="1" parent="1" source="8QCm501qEFq_NcqXzooc-26" target="0ncxLKNJgjDSfYJNMYuV-5">
          <mxGeometry relative="1" as="geometry" />
        </mxCell>
        <mxCell id="0ncxLKNJgjDSfYJNMYuV-19" style="edgeStyle=orthogonalEdgeStyle;rounded=0;orthogonalLoop=1;jettySize=auto;html=1;entryX=1;entryY=0.5;entryDx=0;entryDy=0;endArrow=none;endFill=0;" edge="1" parent="1" source="8QCm501qEFq_NcqXzooc-26" target="0ncxLKNJgjDSfYJNMYuV-3">
          <mxGeometry relative="1" as="geometry" />
        </mxCell>
        <mxCell id="hB35oV2SkAgk2I2fWWv7-18" style="edgeStyle=orthogonalEdgeStyle;rounded=0;orthogonalLoop=1;jettySize=auto;html=1;entryX=1;entryY=0.5;entryDx=0;entryDy=0;endArrow=none;endFill=0;" edge="1" parent="1" source="8QCm501qEFq_NcqXzooc-26" target="hB35oV2SkAgk2I2fWWv7-15">
          <mxGeometry relative="1" as="geometry" />
        </mxCell>
        <mxCell id="8QCm501qEFq_NcqXzooc-26" value="&lt;p style=&quot;margin:0px;margin-top:4px;text-align:center;&quot;&gt;&lt;b&gt;index Class&lt;/b&gt;&lt;/p&gt;&lt;p style=&quot;margin:0px;margin-left:4px;&quot;&gt;&lt;br&gt;&lt;/p&gt;" style="verticalAlign=top;align=left;overflow=fill;fontSize=12;fontFamily=Helvetica;html=1;whiteSpace=wrap;" vertex="1" parent="1">
          <mxGeometry x="406.5" y="1597.75" width="160" height="49.5" as="geometry" />
        </mxCell>
        <mxCell id="8QCm501qEFq_NcqXzooc-28" value="&lt;p style=&quot;margin:0px;margin-top:4px;text-align:center;&quot;&gt;&lt;b&gt;join Class&lt;/b&gt;&lt;/p&gt;&lt;p style=&quot;margin:0px;margin-left:4px;&quot;&gt;&lt;br&gt;&lt;/p&gt;" style="verticalAlign=top;align=left;overflow=fill;fontSize=12;fontFamily=Helvetica;html=1;whiteSpace=wrap;" vertex="1" parent="1">
          <mxGeometry x="65.5" y="1552" width="155" height="53" as="geometry" />
        </mxCell>
        <mxCell id="0ncxLKNJgjDSfYJNMYuV-66" style="edgeStyle=orthogonalEdgeStyle;rounded=0;orthogonalLoop=1;jettySize=auto;html=1;entryX=0;entryY=0.5;entryDx=0;entryDy=0;endArrow=none;endFill=0;" edge="1" parent="1" source="8QCm501qEFq_NcqXzooc-29" target="8QCm501qEFq_NcqXzooc-10">
          <mxGeometry relative="1" as="geometry" />
        </mxCell>
        <mxCell id="8QCm501qEFq_NcqXzooc-29" value="&lt;p style=&quot;margin:0px;margin-top:4px;text-align:center;&quot;&gt;&lt;b&gt;ItemController Class&lt;/b&gt;&lt;/p&gt;&lt;hr size=&quot;1&quot;&gt;&lt;p style=&quot;margin:0px;margin-left:4px;&quot;&gt;* ItemAdd&lt;/p&gt;&lt;p style=&quot;margin:0px;margin-left:4px;&quot;&gt;* ItemBusinessManDelete&lt;/p&gt;&lt;p style=&quot;margin:0px;margin-left:4px;&quot;&gt;*&amp;nbsp;ItemBusinessManInfo&lt;/p&gt;&lt;p style=&quot;margin:0px;margin-left:4px;&quot;&gt;* ItemBusinessManSearch&lt;br&gt;&lt;/p&gt;&lt;p style=&quot;margin:0px;margin-left:4px;&quot;&gt;*&amp;nbsp;ItemBusinessManUpdate&lt;/p&gt;&lt;p style=&quot;margin:0px;margin-left:4px;&quot;&gt;*&amp;nbsp;ItemInfoController&lt;/p&gt;&lt;p style=&quot;margin:0px;margin-left:4px;&quot;&gt;*&amp;nbsp;ItemSearchController&lt;/p&gt;" style="verticalAlign=top;align=left;overflow=fill;fontSize=12;fontFamily=Helvetica;html=1;whiteSpace=wrap;" vertex="1" parent="1">
          <mxGeometry x="1160.75" y="2238" width="160" height="152" as="geometry" />
        </mxCell>
        <mxCell id="8QCm501qEFq_NcqXzooc-30" value="&lt;p style=&quot;margin:0px;margin-top:4px;text-align:center;&quot;&gt;&lt;b&gt;UserController Class&lt;/b&gt;&lt;/p&gt;&lt;hr size=&quot;1&quot;&gt;&lt;p style=&quot;margin:0px;margin-left:4px;&quot;&gt;* UserDeleteController&lt;/p&gt;&lt;p style=&quot;margin:0px;margin-left:4px;&quot;&gt;* UserInfoController&lt;br&gt;&lt;/p&gt;&lt;p style=&quot;margin:0px;margin-left:4px;&quot;&gt;* UserJoinBusinessMan&lt;/p&gt;&lt;p style=&quot;margin:0px;margin-left:4px;&quot;&gt;&amp;nbsp; SignUpController&lt;br&gt;&lt;/p&gt;&lt;p style=&quot;margin:0px;margin-left:4px;&quot;&gt;* UserJoinController&lt;br&gt;&lt;/p&gt;&lt;p style=&quot;margin:0px;margin-left:4px;&quot;&gt;* UserJoinUserSignUp&lt;/p&gt;&lt;p style=&quot;margin:0px;margin-left:4px;&quot;&gt;&amp;nbsp; Controller&lt;br&gt;&lt;/p&gt;&lt;p style=&quot;margin:0px;margin-left:4px;&quot;&gt;*&amp;nbsp;UserLoginController&lt;/p&gt;&lt;p style=&quot;margin:0px;margin-left:4px;&quot;&gt;*&amp;nbsp;UserLogoutController&lt;/p&gt;&lt;p style=&quot;margin:0px;margin-left:4px;&quot;&gt;*&amp;nbsp;UserUpdateController&lt;/p&gt;&lt;p style=&quot;margin:0px;margin-left:4px;&quot;&gt;&lt;br&gt;&lt;/p&gt;" style="verticalAlign=top;align=left;overflow=fill;fontSize=12;fontFamily=Helvetica;html=1;whiteSpace=wrap;" vertex="1" parent="1">
          <mxGeometry x="1150" y="1405" width="169" height="185" as="geometry" />
        </mxCell>
        <mxCell id="8QCm501qEFq_NcqXzooc-36" value="사용자의 모든 요청을 받는 컨트롤러" style="text;html=1;align=center;verticalAlign=middle;resizable=0;points=[];autosize=1;strokeColor=none;fillColor=none;" vertex="1" parent="1">
          <mxGeometry x="852.63" y="1886" width="220" height="30" as="geometry" />
        </mxCell>
        <mxCell id="8QCm501qEFq_NcqXzooc-37" value="각 서비스와 연결되는 서브 컨트롤러" style="text;html=1;align=center;verticalAlign=middle;resizable=0;points=[];autosize=1;strokeColor=none;fillColor=none;" vertex="1" parent="1">
          <mxGeometry x="1130" y="1318" width="220" height="30" as="geometry" />
        </mxCell>
        <mxCell id="8QCm501qEFq_NcqXzooc-38" value="Business Layer(비지니스 계층 )&lt;br&gt;중요! 사용자의 요구사항을 처리하는 영역" style="rounded=0;whiteSpace=wrap;html=1;" vertex="1" parent="1">
          <mxGeometry x="1460" y="1230" width="490" height="50" as="geometry" />
        </mxCell>
        <mxCell id="8QCm501qEFq_NcqXzooc-111" value="" style="rounded=0;whiteSpace=wrap;html=1;" vertex="1" parent="1">
          <mxGeometry x="42.5" y="2030" width="615" height="978" as="geometry" />
        </mxCell>
        <mxCell id="8QCm501qEFq_NcqXzooc-112" value="사업자Viewer" style="text;html=1;align=center;verticalAlign=middle;resizable=0;points=[];autosize=1;strokeColor=none;fillColor=none;" vertex="1" parent="1">
          <mxGeometry x="76.5" y="1990" width="100" height="30" as="geometry" />
        </mxCell>
        <mxCell id="BLg3iXmMsUZcSNhzlR2g-2" value="View" style="shape=umlFrame;whiteSpace=wrap;html=1;pointerEvents=0;" vertex="1" parent="1">
          <mxGeometry x="20" y="1311" width="670" height="1719" as="geometry" />
        </mxCell>
        <mxCell id="BLg3iXmMsUZcSNhzlR2g-3" value="Controller" style="shape=umlFrame;whiteSpace=wrap;html=1;pointerEvents=0;" vertex="1" parent="1">
          <mxGeometry x="840" y="1307.5" width="550" height="1192.5" as="geometry" />
        </mxCell>
        <mxCell id="DC32Oe_CohKFQxJQUs0B-50" style="edgeStyle=orthogonalEdgeStyle;rounded=0;orthogonalLoop=1;jettySize=auto;html=1;endArrow=none;endFill=0;startArrow=classic;startFill=1;" edge="1" parent="1">
          <mxGeometry relative="1" as="geometry">
            <mxPoint x="4514" y="1966.0666666666666" as="sourcePoint" />
          </mxGeometry>
        </mxCell>
        <mxCell id="_x1iLk6Vw-6eqgtnyvab-19" value="Model" style="shape=umlFrame;whiteSpace=wrap;html=1;pointerEvents=0;" vertex="1" parent="1">
          <mxGeometry x="1450" y="1318" width="2920" height="419" as="geometry" />
        </mxCell>
        <mxCell id="0ncxLKNJgjDSfYJNMYuV-49" style="edgeStyle=orthogonalEdgeStyle;rounded=0;orthogonalLoop=1;jettySize=auto;html=1;endArrow=none;endFill=0;" edge="1" parent="1" source="8QCm501qEFq_NcqXzooc-11" target="8QCm501qEFq_NcqXzooc-30">
          <mxGeometry relative="1" as="geometry">
            <Array as="points">
              <mxPoint x="1380" y="1444" />
              <mxPoint x="1380" y="1498" />
            </Array>
          </mxGeometry>
        </mxCell>
        <mxCell id="8QCm501qEFq_NcqXzooc-11" value="&lt;p style=&quot;margin:0px;margin-top:4px;text-align:center;&quot;&gt;&lt;b&gt;&amp;lt;&amp;lt;interface&amp;gt;&amp;gt;&lt;/b&gt;&lt;/p&gt;&lt;p style=&quot;margin:0px;margin-top:4px;text-align:center;&quot;&gt;&lt;b&gt;UserService&lt;/b&gt;&lt;/p&gt;&lt;hr size=&quot;1&quot;&gt;&lt;p style=&quot;margin:0px;margin-left:4px;&quot;&gt;&lt;span style=&quot;font-size: 12px;&quot;&gt;Map&amp;lt;String, Object&amp;gt; signUp(User user)&lt;/span&gt;&lt;/p&gt;&lt;p style=&quot;margin:0px;margin-left:4px;&quot;&gt;&lt;span style=&quot;font-size: 12px;&quot;&gt;Map&amp;lt;String, Object&amp;gt; signUpBussinessMan(User user, String bussinessManId)&lt;/span&gt;&lt;/p&gt;&lt;p style=&quot;margin:0px;margin-left:4px;&quot;&gt;&lt;span style=&quot;font-size: 12px;&quot;&gt;Map&amp;lt;String, Object&amp;gt; login(String id, String pw)&lt;/span&gt;&lt;/p&gt;&lt;p style=&quot;margin:0px;margin-left:4px;&quot;&gt;&lt;span style=&quot;font-size: 12px;&quot;&gt;Map&amp;lt;String, Object&amp;gt; logout(int sessionId)&lt;/span&gt;&lt;/p&gt;&lt;p style=&quot;margin:0px;margin-left:4px;&quot;&gt;&lt;span style=&quot;font-size: 12px;&quot;&gt;Map&amp;lt;String, Object&amp;gt; userSelect(String userId, String pw)&lt;/span&gt;&lt;/p&gt;&lt;p style=&quot;margin:0px;margin-left:4px;&quot;&gt;&lt;span style=&quot;font-size: 12px;&quot;&gt;Map&amp;lt;String, Object&amp;gt; bussniessManSelect(String userId, String pw)&lt;/span&gt;&lt;/p&gt;&lt;p style=&quot;margin:0px;margin-left:4px;&quot;&gt;&lt;span style=&quot;font-size: 12px;&quot;&gt;Map&amp;lt;String, Object&amp;gt; deleteUser(String id, String pw)&lt;/span&gt;&lt;/p&gt;&lt;p style=&quot;margin:0px;margin-left:4px;&quot;&gt;&lt;span style=&quot;font-size: 12px;&quot;&gt;Map&amp;lt;String, Object&amp;gt; updateUser(String id, String pw, User newUser)&lt;/span&gt;&lt;/p&gt;&lt;p style=&quot;margin:0px;margin-left:4px;&quot;&gt;&lt;span style=&quot;font-size: 12px;&quot;&gt;Session getSession(int sessionId)&lt;/span&gt;&lt;/p&gt;&lt;p style=&quot;margin:0px;margin-left:4px;&quot;&gt;&lt;span style=&quot;font-size: 12px;&quot;&gt;User getUser(String username)&lt;/span&gt;&lt;/p&gt;&lt;p style=&quot;margin:0px;margin-left:4px;&quot;&gt;&lt;span style=&quot;font-size: 12px;&quot;&gt;List&amp;lt;Integer&amp;gt; getSessionIdList()&lt;/span&gt;&lt;/p&gt;" style="verticalAlign=top;align=left;overflow=fill;fontSize=12;fontFamily=Helvetica;html=1;whiteSpace=wrap;" vertex="1" parent="1">
          <mxGeometry x="1510" y="1347" width="430" height="195" as="geometry" />
        </mxCell>
        <mxCell id="D2N0wtSz5P0G-kbIvdKz-26" style="edgeStyle=orthogonalEdgeStyle;rounded=0;orthogonalLoop=1;jettySize=auto;html=1;dashed=1;endArrow=open;endFill=0;" edge="1" parent="1" source="D2N0wtSz5P0G-kbIvdKz-25" target="8QCm501qEFq_NcqXzooc-11">
          <mxGeometry relative="1" as="geometry" />
        </mxCell>
        <mxCell id="D2N0wtSz5P0G-kbIvdKz-27" value="Implements" style="edgeLabel;html=1;align=center;verticalAlign=middle;resizable=0;points=[];" connectable="0" vertex="1" parent="D2N0wtSz5P0G-kbIvdKz-26">
          <mxGeometry x="-0.178" relative="1" as="geometry">
            <mxPoint x="-8" y="-19" as="offset" />
          </mxGeometry>
        </mxCell>
        <mxCell id="D2N0wtSz5P0G-kbIvdKz-25" value="&lt;p style=&quot;margin:0px;margin-top:4px;text-align:center;&quot;&gt;&lt;b style=&quot;background-color: initial;&quot;&gt;UserServiceImpl Class&lt;/b&gt;&lt;br&gt;&lt;/p&gt;&lt;hr size=&quot;1&quot;&gt;&lt;p style=&quot;margin:0px;margin-left:4px;&quot;&gt;- instance: UserService&lt;/p&gt;&lt;p style=&quot;margin:0px;margin-left:4px;&quot;&gt;&lt;span style=&quot;font-size: 12px;&quot;&gt;- List&amp;lt;Integer&amp;gt; SessionIdList&lt;/span&gt;&lt;/p&gt;&lt;p style=&quot;margin:0px;margin-left:4px;&quot;&gt;&lt;span style=&quot;font-size: 12px;&quot;&gt;- UserDao userDao&lt;/span&gt;&lt;/p&gt;&lt;p style=&quot;margin:0px;margin-left:4px;&quot;&gt;&lt;span style=&quot;font-size: 12px;&quot;&gt;- BussinessManDao bussinessManDao&lt;/span&gt;&lt;/p&gt;&lt;p style=&quot;margin:0px;margin-left:4px;&quot;&gt;&lt;span style=&quot;font-size: 12px;&quot;&gt;- SessionDao sessionDao&lt;/span&gt;&lt;/p&gt;&lt;p style=&quot;margin:0px;margin-left:4px;&quot;&gt;&lt;span style=&quot;font-size: 12px;&quot;&gt;- BCryptPasswordEncoder bCryptPasswordEncoder&lt;/span&gt;&lt;/p&gt;&lt;hr size=&quot;1&quot;&gt;&lt;p style=&quot;margin:0px;margin-left:4px;&quot;&gt;+ getInstance(): UserService&lt;/p&gt;&lt;p style=&quot;margin:0px;margin-left:4px;&quot;&gt;- UserServiceImpl()&lt;/p&gt;" style="verticalAlign=top;align=left;overflow=fill;fontSize=12;fontFamily=Helvetica;html=1;whiteSpace=wrap;" vertex="1" parent="1">
          <mxGeometry x="2011" y="1359.5" width="290" height="170" as="geometry" />
        </mxCell>
        <mxCell id="8QCm501qEFq_NcqXzooc-22" value="회원Viewer" style="text;html=1;align=center;verticalAlign=middle;resizable=0;points=[];autosize=1;strokeColor=none;fillColor=none;" vertex="1" parent="1">
          <mxGeometry x="42.129999999999995" y="1340" width="80" height="30" as="geometry" />
        </mxCell>
        <mxCell id="N6dzrF6NmZLiMqUayy4g-1" value="" style="group" connectable="0" vertex="1" parent="1">
          <mxGeometry x="3700" y="1102.5" width="685" height="608" as="geometry" />
        </mxCell>
        <mxCell id="D2N0wtSz5P0G-kbIvdKz-21" style="edgeStyle=orthogonalEdgeStyle;rounded=0;orthogonalLoop=1;jettySize=auto;html=1;dashed=1;endArrow=open;endFill=0;" edge="1" parent="N6dzrF6NmZLiMqUayy4g-1">
          <mxGeometry relative="1" as="geometry" />
        </mxCell>
        <mxCell id="w6RqbGa0JhaT6BEguwRT-26" value="Implements" style="edgeLabel;html=1;align=center;verticalAlign=middle;resizable=0;points=[];rounded=0;strokeColor=default;fontFamily=Helvetica;fontSize=12;fontColor=default;fillColor=default;" connectable="0" vertex="1" parent="D2N0wtSz5P0G-kbIvdKz-21">
          <mxGeometry x="-0.1493" relative="1" as="geometry">
            <mxPoint as="offset" />
          </mxGeometry>
        </mxCell>
        <mxCell id="Ig_2devP-P1ifD7XIivo-1" value="" style="group" connectable="0" vertex="1" parent="N6dzrF6NmZLiMqUayy4g-1">
          <mxGeometry x="-30" y="227.5" width="548.8800000000001" height="380.5" as="geometry" />
        </mxCell>
        <mxCell id="Ig_2devP-P1ifD7XIivo-2" value="Session Dto" style="text;html=1;align=center;verticalAlign=middle;resizable=0;points=[];autosize=1;strokeColor=none;fillColor=none;" vertex="1" parent="Ig_2devP-P1ifD7XIivo-1">
          <mxGeometry x="295" y="150" width="90" height="30" as="geometry" />
        </mxCell>
        <mxCell id="Ig_2devP-P1ifD7XIivo-3" value="" style="group" connectable="0" vertex="1" parent="Ig_2devP-P1ifD7XIivo-1">
          <mxGeometry width="548.8800000000001" height="380.5" as="geometry" />
        </mxCell>
        <mxCell id="Ig_2devP-P1ifD7XIivo-4" value="&lt;p style=&quot;margin:0px;margin-top:4px;text-align:center;&quot;&gt;&lt;b&gt;Session Class&lt;/b&gt;&lt;/p&gt;&lt;hr size=&quot;1&quot;&gt;&lt;div&gt;&amp;nbsp;- sessionId: int&lt;/div&gt;&lt;div&gt;&amp;nbsp;- userId: String&lt;/div&gt;&lt;div&gt;&amp;nbsp;- role: String&lt;/div&gt;" style="verticalAlign=top;align=left;overflow=fill;fontSize=12;fontFamily=Helvetica;html=1;whiteSpace=wrap;" vertex="1" parent="Ig_2devP-P1ifD7XIivo-3">
          <mxGeometry x="280" y="182.6500000000001" width="190" height="90" as="geometry" />
        </mxCell>
        <mxCell id="Ig_2devP-P1ifD7XIivo-5" value="" style="group" connectable="0" vertex="1" parent="Ig_2devP-P1ifD7XIivo-3">
          <mxGeometry width="548.8800000000001" height="380.5" as="geometry" />
        </mxCell>
        <mxCell id="Ig_2devP-P1ifD7XIivo-6" value="" style="group" connectable="0" vertex="1" parent="Ig_2devP-P1ifD7XIivo-5">
          <mxGeometry x="278.8800000000001" width="270" height="380.5" as="geometry" />
        </mxCell>
        <mxCell id="Ig_2devP-P1ifD7XIivo-7" value="&lt;p style=&quot;margin:0px;margin-top:4px;text-align:center;&quot;&gt;&amp;lt;&amp;lt;interface&amp;gt;&amp;gt;&lt;/p&gt;&lt;p style=&quot;margin:0px;margin-top:4px;text-align:center;&quot;&gt;SessionDao&lt;/p&gt;&lt;hr size=&quot;1&quot;&gt;&lt;p style=&quot;margin: 0px 0px 0px 4px;&quot;&gt;&lt;br&gt;&lt;/p&gt;&lt;hr size=&quot;1&quot;&gt;&lt;p style=&quot;margin:0px;margin-left:4px;&quot;&gt;Session select(String userId)&lt;/p&gt;" style="verticalAlign=top;align=left;overflow=fill;fontSize=12;fontFamily=Helvetica;html=1;whiteSpace=wrap;" vertex="1" parent="Ig_2devP-P1ifD7XIivo-6">
          <mxGeometry x="-2.0799999999999983" y="13.5" width="192.08" height="103.88" as="geometry" />
        </mxCell>
        <mxCell id="Ig_2devP-P1ifD7XIivo-8" value="유저채팅&lt;br&gt;테이블" style="shape=cylinder3;whiteSpace=wrap;html=1;boundedLbl=1;backgroundOutline=1;size=15;" vertex="1" parent="Ig_2devP-P1ifD7XIivo-6">
          <mxGeometry x="214.5516211338603" y="43.49999999999994" width="55.448378866139755" height="70.00000000000003" as="geometry" />
        </mxCell>
        <mxCell id="Ig_2devP-P1ifD7XIivo-9" value="" style="endArrow=none;html=1;rounded=0;" edge="1" parent="Ig_2devP-P1ifD7XIivo-6" source="Ig_2devP-P1ifD7XIivo-7" target="Ig_2devP-P1ifD7XIivo-8">
          <mxGeometry width="50" height="50" relative="1" as="geometry">
            <mxPoint x="-308.1165598357084" y="1222.3500000000004" as="sourcePoint" />
            <mxPoint x="-282.84554110398904" y="1222.3500000000004" as="targetPoint" />
          </mxGeometry>
        </mxCell>
        <mxCell id="Ig_2devP-P1ifD7XIivo-10" value="SessionDao" style="text;html=1;align=center;verticalAlign=middle;resizable=0;points=[];autosize=1;strokeColor=none;fillColor=none;" vertex="1" parent="Ig_2devP-P1ifD7XIivo-6">
          <mxGeometry x="12.920000000000002" y="-16.499999999999996" width="90" height="30" as="geometry" />
        </mxCell>
        <mxCell id="Ig_2devP-P1ifD7XIivo-11" style="edgeStyle=orthogonalEdgeStyle;rounded=0;orthogonalLoop=1;jettySize=auto;html=1;dashed=1;endArrow=open;endFill=0;" edge="1" parent="Ig_2devP-P1ifD7XIivo-5" source="Ig_2devP-P1ifD7XIivo-13" target="Ig_2devP-P1ifD7XIivo-7">
          <mxGeometry relative="1" as="geometry" />
        </mxCell>
        <mxCell id="Ig_2devP-P1ifD7XIivo-12" value="Implements" style="edgeLabel;html=1;align=center;verticalAlign=middle;resizable=0;points=[];" connectable="0" vertex="1" parent="Ig_2devP-P1ifD7XIivo-11">
          <mxGeometry x="0.0238" y="-4" relative="1" as="geometry">
            <mxPoint x="-3" y="-1" as="offset" />
          </mxGeometry>
        </mxCell>
        <mxCell id="Ig_2devP-P1ifD7XIivo-13" value="&lt;p style=&quot;margin:0px;margin-top:4px;text-align:center;&quot;&gt;&lt;span style=&quot;background-color: initial;&quot;&gt;SessionDaoImpl Class&lt;/span&gt;&lt;br&gt;&lt;/p&gt;&lt;hr size=&quot;1&quot;&gt;&lt;p style=&quot;margin: 0px 0px 0px 4px;&quot;&gt;- instance: SessionDao&lt;/p&gt;&lt;hr size=&quot;1&quot;&gt;&lt;p style=&quot;margin:0px;margin-left:4px;&quot;&gt;+ getInstance(): SessionDao&lt;/p&gt;&lt;p style=&quot;margin:0px;margin-left:4px;&quot;&gt;- SessionDaoImpl()&lt;/p&gt;" style="verticalAlign=top;align=left;overflow=fill;fontSize=12;fontFamily=Helvetica;html=1;whiteSpace=wrap;" vertex="1" parent="Ig_2devP-P1ifD7XIivo-5">
          <mxGeometry y="13.5" width="192.08" height="100" as="geometry" />
        </mxCell>
        <mxCell id="0ncxLKNJgjDSfYJNMYuV-2" value="&lt;p style=&quot;margin:0px;margin-top:4px;text-align:center;&quot;&gt;&lt;b&gt;userInfo Class&lt;/b&gt;&lt;/p&gt;" style="verticalAlign=top;align=left;overflow=fill;fontSize=12;fontFamily=Helvetica;html=1;whiteSpace=wrap;" vertex="1" parent="1">
          <mxGeometry x="69.5" y="1634" width="155" height="53" as="geometry" />
        </mxCell>
        <mxCell id="0ncxLKNJgjDSfYJNMYuV-3" value="&lt;p style=&quot;margin:0px;margin-top:4px;text-align:center;&quot;&gt;&lt;b&gt;userUpdate Class&lt;/b&gt;&lt;/p&gt;" style="verticalAlign=top;align=left;overflow=fill;fontSize=12;fontFamily=Helvetica;html=1;whiteSpace=wrap;" vertex="1" parent="1">
          <mxGeometry x="69.75" y="1798" width="155" height="53" as="geometry" />
        </mxCell>
        <mxCell id="0ncxLKNJgjDSfYJNMYuV-4" value="&lt;p style=&quot;margin:0px;margin-top:4px;text-align:center;&quot;&gt;&lt;b&gt;logout Class&lt;/b&gt;&lt;/p&gt;" style="verticalAlign=top;align=left;overflow=fill;fontSize=12;fontFamily=Helvetica;html=1;whiteSpace=wrap;" vertex="1" parent="1">
          <mxGeometry x="65.5" y="1473" width="155" height="52" as="geometry" />
        </mxCell>
        <mxCell id="0ncxLKNJgjDSfYJNMYuV-5" value="&lt;p style=&quot;margin:0px;margin-top:4px;text-align:center;&quot;&gt;&lt;b&gt;userDelete Class&lt;/b&gt;&lt;/p&gt;" style="verticalAlign=top;align=left;overflow=fill;fontSize=12;fontFamily=Helvetica;html=1;whiteSpace=wrap;" vertex="1" parent="1">
          <mxGeometry x="69.5" y="1712" width="155" height="53" as="geometry" />
        </mxCell>
        <mxCell id="0ncxLKNJgjDSfYJNMYuV-6" value="/user/login" style="text;html=1;align=center;verticalAlign=middle;whiteSpace=wrap;rounded=0;" vertex="1" parent="1">
          <mxGeometry x="224.75" y="1418.5" width="74.25" height="29" as="geometry" />
        </mxCell>
        <mxCell id="0ncxLKNJgjDSfYJNMYuV-8" value="/user/logout" style="text;html=1;align=center;verticalAlign=middle;whiteSpace=wrap;rounded=0;" vertex="1" parent="1">
          <mxGeometry x="224.75" y="1499.5" width="74.25" height="29" as="geometry" />
        </mxCell>
        <mxCell id="0ncxLKNJgjDSfYJNMYuV-9" value="/user/jo&lt;span style=&quot;color: rgba(0, 0, 0, 0); font-family: monospace; font-size: 0px; text-align: start; text-wrap: nowrap;&quot;&gt;%3CmxGraphModel%3E%3Croot%3E%3CmxCell%20id%3D%220%22%2F%3E%3CmxCell%20id%3D%221%22%20parent%3D%220%22%2F%3E%3CmxCell%20id%3D%222%22%20value%3D%22%2Fuser%2Flogout%22%20style%3D%22text%3Bhtml%3D1%3Balign%3Dcenter%3BverticalAlign%3Dmiddle%3BwhiteSpace%3Dwrap%3Brounded%3D0%3B%22%20vertex%3D%221%22%20parent%3D%221%22%3E%3CmxGeometry%20x%3D%22235.75%22%20y%3D%221532.5%22%20width%3D%2274.25%22%20height%3D%2229%22%20as%3D%22geometry%22%2F%3E%3C%2FmxCell%3E%3C%2Froot%3E%3C%2FmxGraphModel%3E&lt;/span&gt;&lt;span style=&quot;color: rgba(0, 0, 0, 0); font-family: monospace; font-size: 0px; text-align: start; text-wrap: nowrap;&quot;&gt;%3CmxGraphModel%3E%3Croot%3E%3CmxCell%20id%3D%220%22%2F%3E%3CmxCell%20id%3D%221%22%20parent%3D%220%22%2F%3E%3CmxCell%20id%3D%222%22%20value%3D%22%2Fuser%2Flogout%22%20style%3D%22text%3Bhtml%3D1%3Balign%3Dcenter%3BverticalAlign%3Dmiddle%3BwhiteSpace%3Dwrap%3Brounded%3D0%3B%22%20vertex%3D%221%22%20parent%3D%221%22%3E%3CmxGeometry%20x%3D%22235.75%22%20y%3D%221532.5%22%20width%3D%2274.25%22%20height%3D%2229%22%20as%3D%22geometry%22%2F%3E%3C%2FmxCell%3E%3C%2Froot%3E%3C%2FmxGraphModel%3E&lt;/span&gt;in" style="text;html=1;align=center;verticalAlign=middle;whiteSpace=wrap;rounded=0;" vertex="1" parent="1">
          <mxGeometry x="224.5" y="1577" width="74.25" height="29" as="geometry" />
        </mxCell>
        <mxCell id="0ncxLKNJgjDSfYJNMYuV-10" value="/user/info&lt;span style=&quot;color: rgba(0, 0, 0, 0); font-family: monospace; font-size: 0px; text-align: start; text-wrap: nowrap;&quot;&gt;%3CmxGraphModel%3E%3Croot%3E%3CmxCell%20id%3D%220%22%2F%3E%3CmxCell%20id%3D%221%22%20parent%3D%220%22%2F%3E%3CmxCell%20id%3D%222%22%20value%3D%22%2Fuser%2Flogout%22%20style%3D%22text%3Bhtml%3D1%3Balign%3Dcenter%3BverticalAlign%3Dmiddle%3BwhiteSpace%3Dwrap%3Brounded%3D0%3B%22%20vertex%3D%221%22%20parent%3D%221%22%3E%3CmxGeometry%20x%3D%22235.75%22%20y%3D%221532.5%22%20width%3D%2274.25%22%20height%3D%2229%22%20as%3D%22geometry%22%2F%3E%3C%2FmxCell%3E%3C%2Froot%3E%3C%2FmxGraphModel%3E&lt;/span&gt;&lt;span style=&quot;color: rgba(0, 0, 0, 0); font-family: monospace; font-size: 0px; text-align: start; text-wrap: nowrap;&quot;&gt;%3CmxGraphModel%3E%3Croot%3E%3CmxCell%20id%3D%220%22%2F%3E%3CmxCell%20id%3D%221%22%20parent%3D%220%22%2F%3E%3CmxCell%20id%3D%222%22%20value%3D%22%2Fuser%2Flogout%22%20style%3D%22text%3Bhtml%3D1%3Balign%3Dcenter%3BverticalAlign%3Dmiddle%3BwhiteSpace%3Dwrap%3Brounded%3D0%3B%22%20vertex%3D%221%22%20parent%3D%221%22%3E%3CmxGeometry%20x%3D%22235.75%22%20y%3D%221532.5%22%20width%3D%2274.25%22%20height%3D%2229%22%20as%3D%22geometry%22%2F%3E%3C%2FmxCell%3E%3C%2Froot%3E%3C%2FmxGraphModel%&lt;/span&gt;" style="text;html=1;align=center;verticalAlign=middle;whiteSpace=wrap;rounded=0;" vertex="1" parent="1">
          <mxGeometry x="226.88" y="1661" width="74.25" height="29" as="geometry" />
        </mxCell>
        <mxCell id="0ncxLKNJgjDSfYJNMYuV-11" value="/user/delete&lt;span style=&quot;color: rgba(0, 0, 0, 0); font-family: monospace; font-size: 0px; text-align: start; text-wrap: nowrap;&quot;&gt;%3CmxGraphModel%3E%3Croot%3E%3CmxCell%20id%3D%220%22%2F%3E%3CmxCell%20id%3D%221%22%20parent%3D%220%22%2F%3E%3CmxCell%20id%3D%222%22%20value%3D%22%2Fuser%2Flogout%22%20style%3D%22text%3Bhtml%3D1%3Balign%3Dcenter%3BverticalAlign%3Dmiddle%3BwhiteSpace%3Dwrap%3Brounded%3D0%3B%22%20vertex%3D%221%22%20parent%3D%221%22%3E%3CmxGeometry%20x%3D%22235.75%22%20y%3D%221532.5%22%20width%3D%2274.25%22%20height%3D%2229%22%20as%3D%22geometry%22%2F%3E%3C%2FmxCell%3E%3C%2Froot%3E%3C%2FmxGraphModel%3E&lt;/span&gt;&lt;span style=&quot;color: rgba(0, 0, 0, 0); font-family: monospace; font-size: 0px; text-align: start; text-wrap: nowrap;&quot;&gt;%3CmxGraphModel%3E%3Croot%3E%3CmxCell%20id%3D%220%22%2F%3E%3CmxCell%20id%3D%221%22%20parent%3D%220%22%2F%3E%3CmxCell%20id%3D%222%22%20value%3D%22%2Fuser%2Flogout%22%20style%3D%22text%3Bhtml%3D1%3Balign%3Dcenter%3BverticalAlign%3Dmiddle%3BwhiteSpace%3Dwrap%3Brounded%3D0%3B%22%20vertex%3D%221%22%20parent%3D%221%22%3E%3CmxGeometry%20x%3D%22235.75%22%20y%3D%221532.5%22%20width%3D%2274.25%22%20height%3D%2229%22%20as%3D%22geometry%22%2F%3E%3C%2FmxCell%3E%3C%2Froot%3E%3C%2FmxGraphMod&lt;/span&gt;" style="text;html=1;align=center;verticalAlign=middle;whiteSpace=wrap;rounded=0;" vertex="1" parent="1">
          <mxGeometry x="231.88" y="1741" width="74.25" height="29" as="geometry" />
        </mxCell>
        <mxCell id="0ncxLKNJgjDSfYJNMYuV-12" value="/user/update&lt;span style=&quot;color: rgba(0, 0, 0, 0); font-family: monospace; font-size: 0px; text-align: start; text-wrap: nowrap;&quot;&gt;%3CmxGraphModel%3E%3Croot%3E%3CmxCell%20id%3D%220%22%2F%3E%3CmxCell%20id%3D%221%22%20parent%3D%220%22%2F%3E%3CmxCell%20id%3D%222%22%20value%3D%22%2Fuser%2Flogout%22%20style%3D%22text%3Bhtml%3D1%3Balign%3Dcenter%3BverticalAlign%3Dmiddle%3BwhiteSpace%3Dwrap%3Brounded%3D0%3B%22%20vertex%3D%221%22%20parent%3D%221%22%3E%3CmxGeometry%20x%3D%22235.75%22%20y%3D%221532.5%22%20width%3D%2274.25%22%20height%3D%2229%22%20as%3D%22geometry%22%2F%3E%3C%2FmxCell%3E%3C%2Froot%3E%3C%2FmxGraphModel%3E&lt;/span&gt;&lt;span style=&quot;color: rgba(0, 0, 0, 0); font-family: monospace; font-size: 0px; text-align: start; text-wrap: nowrap;&quot;&gt;%3CmxGraphModel%3E%3Croot%3E%3CmxCell%20id%3D%220%22%2F%3E%3CmxCell%20id%3D%221%22%20parent%3D%220%22%2F%3E%3CmxCell%20id%3D%222%22%20value%3D%22%2Fuser%2Flogout%22%20style%3D%22text%3Bhtml%3D1%3Balign%3Dcenter%3BverticalAlign%3Dmiddle%3BwhiteSpace%3Dwrap%3Brounded%3D0%3B%22%20vertex%3D%221%22%20parent%3D%221%22%3E%3CmxGeometry%20x%3D%22235.75%22%20y%3D%221532.5%22%20width%3D%2274.25%22%20height%3D%2229%22%20as%3D%22geometry%22%2F%3E%3C%2FmxCell%3E%3C%2Froot%3E%3C%2FmxGraphM&lt;/span&gt;" style="text;html=1;align=center;verticalAlign=middle;whiteSpace=wrap;rounded=0;" vertex="1" parent="1">
          <mxGeometry x="231.88" y="1826" width="74.25" height="29" as="geometry" />
        </mxCell>
        <mxCell id="0ncxLKNJgjDSfYJNMYuV-13" value="/" style="text;html=1;align=center;verticalAlign=middle;whiteSpace=wrap;rounded=0;" vertex="1" parent="1">
          <mxGeometry x="579" y="1607" width="60" height="30" as="geometry" />
        </mxCell>
        <mxCell id="0ncxLKNJgjDSfYJNMYuV-22" value="&lt;p style=&quot;margin:0px;margin-top:4px;text-align:center;&quot;&gt;&lt;b&gt;login Class&lt;/b&gt;&lt;/p&gt;" style="verticalAlign=top;align=left;overflow=fill;fontSize=12;fontFamily=Helvetica;html=1;whiteSpace=wrap;" vertex="1" parent="1">
          <mxGeometry x="70.63" y="2042" width="155" height="52" as="geometry" />
        </mxCell>
        <mxCell id="0ncxLKNJgjDSfYJNMYuV-23" style="edgeStyle=orthogonalEdgeStyle;rounded=0;orthogonalLoop=1;jettySize=auto;html=1;entryX=1;entryY=0.5;entryDx=0;entryDy=0;endArrow=none;endFill=0;" edge="1" parent="1" source="0ncxLKNJgjDSfYJNMYuV-29" target="0ncxLKNJgjDSfYJNMYuV-22">
          <mxGeometry relative="1" as="geometry" />
        </mxCell>
        <mxCell id="0ncxLKNJgjDSfYJNMYuV-24" style="edgeStyle=orthogonalEdgeStyle;rounded=0;orthogonalLoop=1;jettySize=auto;html=1;entryX=1;entryY=0.5;entryDx=0;entryDy=0;endArrow=none;endFill=0;" edge="1" parent="1" source="0ncxLKNJgjDSfYJNMYuV-29" target="0ncxLKNJgjDSfYJNMYuV-33">
          <mxGeometry relative="1" as="geometry" />
        </mxCell>
        <mxCell id="0ncxLKNJgjDSfYJNMYuV-25" style="edgeStyle=orthogonalEdgeStyle;rounded=0;orthogonalLoop=1;jettySize=auto;html=1;endArrow=none;endFill=0;" edge="1" parent="1" source="0ncxLKNJgjDSfYJNMYuV-29" target="0ncxLKNJgjDSfYJNMYuV-30">
          <mxGeometry relative="1" as="geometry" />
        </mxCell>
        <mxCell id="0ncxLKNJgjDSfYJNMYuV-26" style="edgeStyle=orthogonalEdgeStyle;rounded=0;orthogonalLoop=1;jettySize=auto;html=1;endArrow=none;endFill=0;" edge="1" parent="1" source="0ncxLKNJgjDSfYJNMYuV-29" target="0ncxLKNJgjDSfYJNMYuV-31">
          <mxGeometry relative="1" as="geometry">
            <Array as="points">
              <mxPoint x="321.13" y="2272" />
              <mxPoint x="321.13" y="2309" />
            </Array>
          </mxGeometry>
        </mxCell>
        <mxCell id="0ncxLKNJgjDSfYJNMYuV-27" style="edgeStyle=orthogonalEdgeStyle;rounded=0;orthogonalLoop=1;jettySize=auto;html=1;entryX=1;entryY=0.5;entryDx=0;entryDy=0;endArrow=none;endFill=0;" edge="1" parent="1" source="0ncxLKNJgjDSfYJNMYuV-29" target="0ncxLKNJgjDSfYJNMYuV-34">
          <mxGeometry relative="1" as="geometry" />
        </mxCell>
        <mxCell id="0ncxLKNJgjDSfYJNMYuV-28" style="edgeStyle=orthogonalEdgeStyle;rounded=0;orthogonalLoop=1;jettySize=auto;html=1;entryX=1;entryY=0.5;entryDx=0;entryDy=0;endArrow=none;endFill=0;" edge="1" parent="1" source="0ncxLKNJgjDSfYJNMYuV-29" target="0ncxLKNJgjDSfYJNMYuV-32">
          <mxGeometry relative="1" as="geometry" />
        </mxCell>
        <mxCell id="hB35oV2SkAgk2I2fWWv7-19" style="edgeStyle=orthogonalEdgeStyle;rounded=0;orthogonalLoop=1;jettySize=auto;html=1;entryX=1;entryY=0.5;entryDx=0;entryDy=0;endArrow=none;endFill=0;" edge="1" parent="1" source="0ncxLKNJgjDSfYJNMYuV-29" target="hB35oV2SkAgk2I2fWWv7-4">
          <mxGeometry relative="1" as="geometry" />
        </mxCell>
        <mxCell id="hB35oV2SkAgk2I2fWWv7-20" style="edgeStyle=orthogonalEdgeStyle;rounded=0;orthogonalLoop=1;jettySize=auto;html=1;entryX=1;entryY=0.5;entryDx=0;entryDy=0;endArrow=none;endFill=0;" edge="1" parent="1" source="0ncxLKNJgjDSfYJNMYuV-29" target="hB35oV2SkAgk2I2fWWv7-5">
          <mxGeometry relative="1" as="geometry" />
        </mxCell>
        <mxCell id="hB35oV2SkAgk2I2fWWv7-21" style="edgeStyle=orthogonalEdgeStyle;rounded=0;orthogonalLoop=1;jettySize=auto;html=1;entryX=1;entryY=0.5;entryDx=0;entryDy=0;endArrow=none;endFill=0;" edge="1" parent="1" source="0ncxLKNJgjDSfYJNMYuV-29" target="hB35oV2SkAgk2I2fWWv7-6">
          <mxGeometry relative="1" as="geometry" />
        </mxCell>
        <mxCell id="hB35oV2SkAgk2I2fWWv7-22" style="edgeStyle=orthogonalEdgeStyle;rounded=0;orthogonalLoop=1;jettySize=auto;html=1;entryX=1;entryY=0.5;entryDx=0;entryDy=0;endArrow=none;endFill=0;" edge="1" parent="1" source="0ncxLKNJgjDSfYJNMYuV-29" target="hB35oV2SkAgk2I2fWWv7-7">
          <mxGeometry relative="1" as="geometry" />
        </mxCell>
        <mxCell id="0ncxLKNJgjDSfYJNMYuV-29" value="&lt;p style=&quot;margin:0px;margin-top:4px;text-align:center;&quot;&gt;&lt;b&gt;index Class&lt;/b&gt;&lt;/p&gt;&lt;p style=&quot;margin:0px;margin-left:4px;&quot;&gt;&lt;br&gt;&lt;/p&gt;" style="verticalAlign=top;align=left;overflow=fill;fontSize=12;fontFamily=Helvetica;html=1;whiteSpace=wrap;" vertex="1" parent="1">
          <mxGeometry x="411.63" y="2246.75" width="160" height="49.5" as="geometry" />
        </mxCell>
        <mxCell id="0ncxLKNJgjDSfYJNMYuV-30" value="&lt;p style=&quot;margin:0px;margin-top:4px;text-align:center;&quot;&gt;&lt;b&gt;join Class&lt;/b&gt;&lt;/p&gt;&lt;p style=&quot;margin:0px;margin-left:4px;&quot;&gt;&lt;br&gt;&lt;/p&gt;" style="verticalAlign=top;align=left;overflow=fill;fontSize=12;fontFamily=Helvetica;html=1;whiteSpace=wrap;" vertex="1" parent="1">
          <mxGeometry x="70.63" y="2201" width="155" height="53" as="geometry" />
        </mxCell>
        <mxCell id="0ncxLKNJgjDSfYJNMYuV-31" value="&lt;p style=&quot;margin:0px;margin-top:4px;text-align:center;&quot;&gt;&lt;b&gt;userInfo Class&lt;/b&gt;&lt;/p&gt;" style="verticalAlign=top;align=left;overflow=fill;fontSize=12;fontFamily=Helvetica;html=1;whiteSpace=wrap;" vertex="1" parent="1">
          <mxGeometry x="74.63" y="2283" width="155" height="53" as="geometry" />
        </mxCell>
        <mxCell id="0ncxLKNJgjDSfYJNMYuV-32" value="&lt;p style=&quot;margin:0px;margin-top:4px;text-align:center;&quot;&gt;&lt;b&gt;userUpdate Class&lt;/b&gt;&lt;/p&gt;" style="verticalAlign=top;align=left;overflow=fill;fontSize=12;fontFamily=Helvetica;html=1;whiteSpace=wrap;" vertex="1" parent="1">
          <mxGeometry x="74.88" y="2447" width="155" height="53" as="geometry" />
        </mxCell>
        <mxCell id="0ncxLKNJgjDSfYJNMYuV-33" value="&lt;p style=&quot;margin:0px;margin-top:4px;text-align:center;&quot;&gt;&lt;b&gt;logout Class&lt;/b&gt;&lt;/p&gt;" style="verticalAlign=top;align=left;overflow=fill;fontSize=12;fontFamily=Helvetica;html=1;whiteSpace=wrap;" vertex="1" parent="1">
          <mxGeometry x="70.63" y="2122" width="155" height="52" as="geometry" />
        </mxCell>
        <mxCell id="0ncxLKNJgjDSfYJNMYuV-34" value="&lt;p style=&quot;margin:0px;margin-top:4px;text-align:center;&quot;&gt;&lt;b&gt;userDelete Class&lt;/b&gt;&lt;/p&gt;" style="verticalAlign=top;align=left;overflow=fill;fontSize=12;fontFamily=Helvetica;html=1;whiteSpace=wrap;" vertex="1" parent="1">
          <mxGeometry x="74.63" y="2361" width="155" height="53" as="geometry" />
        </mxCell>
        <mxCell id="0ncxLKNJgjDSfYJNMYuV-35" value="/user/login" style="text;html=1;align=center;verticalAlign=middle;whiteSpace=wrap;rounded=0;" vertex="1" parent="1">
          <mxGeometry x="229.88" y="2067.5" width="74.25" height="29" as="geometry" />
        </mxCell>
        <mxCell id="0ncxLKNJgjDSfYJNMYuV-36" value="/user/logout" style="text;html=1;align=center;verticalAlign=middle;whiteSpace=wrap;rounded=0;" vertex="1" parent="1">
          <mxGeometry x="229.88" y="2148.5" width="74.25" height="29" as="geometry" />
        </mxCell>
        <mxCell id="0ncxLKNJgjDSfYJNMYuV-37" value="user/join/businessMan" style="text;html=1;align=center;verticalAlign=middle;whiteSpace=wrap;rounded=0;" vertex="1" parent="1">
          <mxGeometry x="229.63" y="2226" width="101" height="29" as="geometry" />
        </mxCell>
        <mxCell id="0ncxLKNJgjDSfYJNMYuV-38" value="/user/info&lt;span style=&quot;color: rgba(0, 0, 0, 0); font-family: monospace; font-size: 0px; text-align: start; text-wrap: nowrap;&quot;&gt;%3CmxGraphModel%3E%3Croot%3E%3CmxCell%20id%3D%220%22%2F%3E%3CmxCell%20id%3D%221%22%20parent%3D%220%22%2F%3E%3CmxCell%20id%3D%222%22%20value%3D%22%2Fuser%2Flogout%22%20style%3D%22text%3Bhtml%3D1%3Balign%3Dcenter%3BverticalAlign%3Dmiddle%3BwhiteSpace%3Dwrap%3Brounded%3D0%3B%22%20vertex%3D%221%22%20parent%3D%221%22%3E%3CmxGeometry%20x%3D%22235.75%22%20y%3D%221532.5%22%20width%3D%2274.25%22%20height%3D%2229%22%20as%3D%22geometry%22%2F%3E%3C%2FmxCell%3E%3C%2Froot%3E%3C%2FmxGraphModel%3E&lt;/span&gt;&lt;span style=&quot;color: rgba(0, 0, 0, 0); font-family: monospace; font-size: 0px; text-align: start; text-wrap: nowrap;&quot;&gt;%3CmxGraphModel%3E%3Croot%3E%3CmxCell%20id%3D%220%22%2F%3E%3CmxCell%20id%3D%221%22%20parent%3D%220%22%2F%3E%3CmxCell%20id%3D%222%22%20value%3D%22%2Fuser%2Flogout%22%20style%3D%22text%3Bhtml%3D1%3Balign%3Dcenter%3BverticalAlign%3Dmiddle%3BwhiteSpace%3Dwrap%3Brounded%3D0%3B%22%20vertex%3D%221%22%20parent%3D%221%22%3E%3CmxGeometry%20x%3D%22235.75%22%20y%3D%221532.5%22%20width%3D%2274.25%22%20height%3D%2229%22%20as%3D%22geometry%22%2F%3E%3C%2FmxCell%3E%3C%2Froot%3E%3C%2FmxGraphModel%&lt;/span&gt;" style="text;html=1;align=center;verticalAlign=middle;whiteSpace=wrap;rounded=0;" vertex="1" parent="1">
          <mxGeometry x="232.01" y="2310" width="74.25" height="29" as="geometry" />
        </mxCell>
        <mxCell id="0ncxLKNJgjDSfYJNMYuV-39" value="/user/delete&lt;span style=&quot;color: rgba(0, 0, 0, 0); font-family: monospace; font-size: 0px; text-align: start; text-wrap: nowrap;&quot;&gt;%3CmxGraphModel%3E%3Croot%3E%3CmxCell%20id%3D%220%22%2F%3E%3CmxCell%20id%3D%221%22%20parent%3D%220%22%2F%3E%3CmxCell%20id%3D%222%22%20value%3D%22%2Fuser%2Flogout%22%20style%3D%22text%3Bhtml%3D1%3Balign%3Dcenter%3BverticalAlign%3Dmiddle%3BwhiteSpace%3Dwrap%3Brounded%3D0%3B%22%20vertex%3D%221%22%20parent%3D%221%22%3E%3CmxGeometry%20x%3D%22235.75%22%20y%3D%221532.5%22%20width%3D%2274.25%22%20height%3D%2229%22%20as%3D%22geometry%22%2F%3E%3C%2FmxCell%3E%3C%2Froot%3E%3C%2FmxGraphModel%3E&lt;/span&gt;&lt;span style=&quot;color: rgba(0, 0, 0, 0); font-family: monospace; font-size: 0px; text-align: start; text-wrap: nowrap;&quot;&gt;%3CmxGraphModel%3E%3Croot%3E%3CmxCell%20id%3D%220%22%2F%3E%3CmxCell%20id%3D%221%22%20parent%3D%220%22%2F%3E%3CmxCell%20id%3D%222%22%20value%3D%22%2Fuser%2Flogout%22%20style%3D%22text%3Bhtml%3D1%3Balign%3Dcenter%3BverticalAlign%3Dmiddle%3BwhiteSpace%3Dwrap%3Brounded%3D0%3B%22%20vertex%3D%221%22%20parent%3D%221%22%3E%3CmxGeometry%20x%3D%22235.75%22%20y%3D%221532.5%22%20width%3D%2274.25%22%20height%3D%2229%22%20as%3D%22geometry%22%2F%3E%3C%2FmxCell%3E%3C%2Froot%3E%3C%2FmxGraphMod&lt;/span&gt;" style="text;html=1;align=center;verticalAlign=middle;whiteSpace=wrap;rounded=0;" vertex="1" parent="1">
          <mxGeometry x="237.01" y="2390" width="74.25" height="29" as="geometry" />
        </mxCell>
        <mxCell id="0ncxLKNJgjDSfYJNMYuV-40" value="/user/update&lt;span style=&quot;color: rgba(0, 0, 0, 0); font-family: monospace; font-size: 0px; text-align: start; text-wrap: nowrap;&quot;&gt;%3CmxGraphModel%3E%3Croot%3E%3CmxCell%20id%3D%220%22%2F%3E%3CmxCell%20id%3D%221%22%20parent%3D%220%22%2F%3E%3CmxCell%20id%3D%222%22%20value%3D%22%2Fuser%2Flogout%22%20style%3D%22text%3Bhtml%3D1%3Balign%3Dcenter%3BverticalAlign%3Dmiddle%3BwhiteSpace%3Dwrap%3Brounded%3D0%3B%22%20vertex%3D%221%22%20parent%3D%221%22%3E%3CmxGeometry%20x%3D%22235.75%22%20y%3D%221532.5%22%20width%3D%2274.25%22%20height%3D%2229%22%20as%3D%22geometry%22%2F%3E%3C%2FmxCell%3E%3C%2Froot%3E%3C%2FmxGraphModel%3E&lt;/span&gt;&lt;span style=&quot;color: rgba(0, 0, 0, 0); font-family: monospace; font-size: 0px; text-align: start; text-wrap: nowrap;&quot;&gt;%3CmxGraphModel%3E%3Croot%3E%3CmxCell%20id%3D%220%22%2F%3E%3CmxCell%20id%3D%221%22%20parent%3D%220%22%2F%3E%3CmxCell%20id%3D%222%22%20value%3D%22%2Fuser%2Flogout%22%20style%3D%22text%3Bhtml%3D1%3Balign%3Dcenter%3BverticalAlign%3Dmiddle%3BwhiteSpace%3Dwrap%3Brounded%3D0%3B%22%20vertex%3D%221%22%20parent%3D%221%22%3E%3CmxGeometry%20x%3D%22235.75%22%20y%3D%221532.5%22%20width%3D%2274.25%22%20height%3D%2229%22%20as%3D%22geometry%22%2F%3E%3C%2FmxCell%3E%3C%2Froot%3E%3C%2FmxGraphM&lt;/span&gt;" style="text;html=1;align=center;verticalAlign=middle;whiteSpace=wrap;rounded=0;" vertex="1" parent="1">
          <mxGeometry x="237.01" y="2475" width="74.25" height="29" as="geometry" />
        </mxCell>
        <mxCell id="0ncxLKNJgjDSfYJNMYuV-41" value="/" style="text;html=1;align=center;verticalAlign=middle;whiteSpace=wrap;rounded=0;" vertex="1" parent="1">
          <mxGeometry x="584.13" y="2256" width="60" height="30" as="geometry" />
        </mxCell>
        <mxCell id="0ncxLKNJgjDSfYJNMYuV-43" style="edgeStyle=orthogonalEdgeStyle;rounded=0;orthogonalLoop=1;jettySize=auto;html=1;entryX=0;entryY=0.5;entryDx=0;entryDy=0;endArrow=none;endFill=0;" edge="1" parent="1" source="8QCm501qEFq_NcqXzooc-20" target="8QCm501qEFq_NcqXzooc-30">
          <mxGeometry relative="1" as="geometry" />
        </mxCell>
        <mxCell id="0ncxLKNJgjDSfYJNMYuV-44" style="edgeStyle=orthogonalEdgeStyle;rounded=0;orthogonalLoop=1;jettySize=auto;html=1;entryX=0;entryY=0.5;entryDx=0;entryDy=0;endArrow=none;endFill=0;" edge="1" parent="1" source="8QCm501qEFq_NcqXzooc-20" target="8QCm501qEFq_NcqXzooc-29">
          <mxGeometry relative="1" as="geometry" />
        </mxCell>
        <mxCell id="Xx6ClYIGnCuL0Qh0WKH6-11" value="" style="rounded=0;whiteSpace=wrap;html=1;" vertex="1" parent="1">
          <mxGeometry x="4460" y="1360" width="800" height="1120" as="geometry" />
        </mxCell>
        <mxCell id="D2N0wtSz5P0G-kbIvdKz-28" style="edgeStyle=orthogonalEdgeStyle;rounded=0;orthogonalLoop=1;jettySize=auto;html=1;dashed=1;endArrow=open;endFill=0;entryX=0.5;entryY=1;entryDx=0;entryDy=0;" edge="1" parent="1" source="D2N0wtSz5P0G-kbIvdKz-4" target="D2N0wtSz5P0G-kbIvdKz-3">
          <mxGeometry relative="1" as="geometry">
            <mxPoint x="4957.5" y="1930" as="targetPoint" />
          </mxGeometry>
        </mxCell>
        <mxCell id="D2N0wtSz5P0G-kbIvdKz-29" value="Use" style="edgeLabel;html=1;align=center;verticalAlign=middle;resizable=0;points=[];" connectable="0" vertex="1" parent="D2N0wtSz5P0G-kbIvdKz-28">
          <mxGeometry x="-0.2091" relative="1" as="geometry">
            <mxPoint x="15" y="-11" as="offset" />
          </mxGeometry>
        </mxCell>
        <mxCell id="D2N0wtSz5P0G-kbIvdKz-3" value="&lt;p style=&quot;margin:0px;margin-top:4px;text-align:center;&quot;&gt;&lt;b&gt;ConnectionPool_ByHikari Class&lt;/b&gt;&lt;/p&gt;&lt;hr size=&quot;1&quot;&gt;&lt;p style=&quot;margin:0px;margin-left:4px;&quot;&gt;# id: String&lt;/p&gt;&lt;p style=&quot;margin:0px;margin-left:4px;&quot;&gt;# pw: String&lt;/p&gt;&lt;p style=&quot;margin:0px;margin-left:4px;&quot;&gt;# url: String&lt;/p&gt;&lt;p style=&quot;margin:0px;margin-left:4px;&quot;&gt;# conn: Connection&lt;/p&gt;&lt;p style=&quot;margin:0px;margin-left:4px;&quot;&gt;- dataSource: DataSource&lt;/p&gt;&lt;p style=&quot;margin:0px;margin-left:4px;&quot;&gt;- instance : ConnectionPool_ByHikari&lt;/p&gt;&lt;hr size=&quot;1&quot;&gt;&lt;p style=&quot;margin:0px;margin-left:4px;&quot;&gt;- ConnectionPool_ByHikari ()&lt;/p&gt;&lt;p style=&quot;margin:0px;margin-left:4px;&quot;&gt;+ getConnection() : Connection&lt;/p&gt;&lt;p style=&quot;margin:0px;margin-left:4px;&quot;&gt;+ txStart() : void&lt;/p&gt;&lt;p style=&quot;margin:0px;margin-left:4px;&quot;&gt;+ txCommit() : void&lt;/p&gt;&lt;p style=&quot;margin:0px;margin-left:4px;&quot;&gt;+ txRollBack() : void&lt;/p&gt;" style="verticalAlign=top;align=left;overflow=fill;fontSize=12;fontFamily=Helvetica;html=1;whiteSpace=wrap;" vertex="1" parent="1">
          <mxGeometry x="4777.5" y="1749" width="270" height="211" as="geometry" />
        </mxCell>
        <mxCell id="0ncxLKNJgjDSfYJNMYuV-56" style="edgeStyle=orthogonalEdgeStyle;rounded=0;orthogonalLoop=1;jettySize=auto;html=1;entryX=0.5;entryY=1;entryDx=0;entryDy=0;" edge="1" parent="1" source="D2N0wtSz5P0G-kbIvdKz-4" target="Ig_2devP-P1ifD7XIivo-13">
          <mxGeometry relative="1" as="geometry">
            <Array as="points">
              <mxPoint x="4913" y="2030" />
              <mxPoint x="3766" y="2030" />
            </Array>
          </mxGeometry>
        </mxCell>
        <mxCell id="0ncxLKNJgjDSfYJNMYuV-58" style="edgeStyle=orthogonalEdgeStyle;rounded=0;orthogonalLoop=1;jettySize=auto;html=1;entryX=0.5;entryY=1;entryDx=0;entryDy=0;" edge="1" parent="1" source="D2N0wtSz5P0G-kbIvdKz-4" target="D2N0wtSz5P0G-kbIvdKz-9">
          <mxGeometry relative="1" as="geometry">
            <Array as="points">
              <mxPoint x="4913" y="2030" />
              <mxPoint x="3106" y="2030" />
            </Array>
          </mxGeometry>
        </mxCell>
        <mxCell id="0ncxLKNJgjDSfYJNMYuV-59" style="edgeStyle=orthogonalEdgeStyle;rounded=0;orthogonalLoop=1;jettySize=auto;html=1;entryX=0.5;entryY=1;entryDx=0;entryDy=0;" edge="1" parent="1" source="D2N0wtSz5P0G-kbIvdKz-4" target="D2N0wtSz5P0G-kbIvdKz-5">
          <mxGeometry relative="1" as="geometry">
            <Array as="points">
              <mxPoint x="4913" y="2030" />
              <mxPoint x="2529" y="2030" />
            </Array>
          </mxGeometry>
        </mxCell>
        <mxCell id="0ncxLKNJgjDSfYJNMYuV-64" style="edgeStyle=orthogonalEdgeStyle;rounded=0;orthogonalLoop=1;jettySize=auto;html=1;entryX=0.5;entryY=1;entryDx=0;entryDy=0;" edge="1" parent="1" source="D2N0wtSz5P0G-kbIvdKz-4" target="D2N0wtSz5P0G-kbIvdKz-46">
          <mxGeometry relative="1" as="geometry">
            <Array as="points">
              <mxPoint x="4913" y="2420" />
              <mxPoint x="2146" y="2420" />
            </Array>
          </mxGeometry>
        </mxCell>
        <mxCell id="D2N0wtSz5P0G-kbIvdKz-4" value="&lt;p style=&quot;margin:0px;margin-top:4px;text-align:center;&quot;&gt;&lt;b&gt;CommonDao Class&lt;/b&gt;&lt;/p&gt;&lt;hr size=&quot;1&quot;&gt;&lt;p style=&quot;margin:0px;margin-left:4px;&quot;&gt;# conn: Connection&lt;/p&gt;&lt;p style=&quot;margin:0px;margin-left:4px;&quot;&gt;# pstmt: PreparedStatement&lt;/p&gt;&lt;p style=&quot;margin:0px;margin-left:4px;&quot;&gt;# rs: ResultSet&lt;/p&gt;&lt;p style=&quot;margin:0px;margin-left:4px;&quot;&gt;- connectionPool: ConnectionPool_ByHikari&lt;br&gt;&lt;/p&gt;&lt;hr size=&quot;1&quot;&gt;&lt;p style=&quot;margin:0px;margin-left:4px;&quot;&gt;# CommonDao()&lt;/p&gt;&lt;p style=&quot;margin:0px;margin-left:4px;&quot;&gt;+ freeConnection&amp;nbsp;&lt;span style=&quot;background-color: initial;&quot;&gt;(Connection conn): void&lt;/span&gt;&lt;/p&gt;&lt;p style=&quot;margin:0px;margin-left:4px;&quot;&gt;+ freeConnection&amp;nbsp;&lt;span style=&quot;background-color: initial;&quot;&gt;(Connection conn, PreparedStatement pstmt): void&lt;/span&gt;&lt;span style=&quot;background-color: initial;&quot;&gt;&lt;br&gt;&lt;/span&gt;&lt;/p&gt;&lt;p style=&quot;margin:0px;margin-left:4px;&quot;&gt;+ freeConnection&amp;nbsp;&lt;span style=&quot;background-color: initial;&quot;&gt;(Connection conn, PreparedStatement pstmt, ResultSet rs): void&lt;/span&gt;&lt;span style=&quot;background-color: initial;&quot;&gt;&lt;br&gt;&lt;/span&gt;&lt;/p&gt;&lt;p style=&quot;margin:0px;margin-left:4px;&quot;&gt;+ freeConnection&amp;nbsp;&lt;span style=&quot;background-color: initial;&quot;&gt;(PreparedStatement pstmt): void&lt;/span&gt;&lt;span style=&quot;background-color: initial;&quot;&gt;&lt;br&gt;&lt;/span&gt;&lt;/p&gt;&lt;p style=&quot;margin:0px;margin-left:4px;&quot;&gt;+ freeConnection&amp;nbsp;&lt;span style=&quot;background-color: initial;&quot;&gt;(PreparedStatement pstmt, ResultSet rs): void&lt;/span&gt;&lt;span style=&quot;background-color: initial;&quot;&gt;&lt;br&gt;&lt;/span&gt;&lt;/p&gt;" style="verticalAlign=top;align=left;overflow=fill;fontSize=12;fontFamily=Helvetica;html=1;whiteSpace=wrap;" vertex="1" parent="1">
          <mxGeometry x="4689" y="2100" width="447" height="200" as="geometry" />
        </mxCell>
        <mxCell id="O0gIQ9g6ufBXQcXwyvP3-4" value="DB Setting" style="text;html=1;align=center;verticalAlign=middle;whiteSpace=wrap;rounded=0;fontSize=24;" vertex="1" parent="1">
          <mxGeometry x="4500" y="1404" width="170" height="30" as="geometry" />
        </mxCell>
        <mxCell id="0ncxLKNJgjDSfYJNMYuV-51" style="edgeStyle=orthogonalEdgeStyle;rounded=0;orthogonalLoop=1;jettySize=auto;html=1;entryX=0.5;entryY=1;entryDx=0;entryDy=0;" edge="1" parent="1" source="D2N0wtSz5P0G-kbIvdKz-1" target="Ig_2devP-P1ifD7XIivo-7">
          <mxGeometry relative="1" as="geometry">
            <Array as="points">
              <mxPoint x="4900" y="1480" />
              <mxPoint x="4043" y="1480" />
            </Array>
          </mxGeometry>
        </mxCell>
        <mxCell id="0ncxLKNJgjDSfYJNMYuV-52" value="extend" style="edgeLabel;html=1;align=center;verticalAlign=middle;resizable=0;points=[];" connectable="0" vertex="1" parent="0ncxLKNJgjDSfYJNMYuV-51">
          <mxGeometry x="0.0983" y="4" relative="1" as="geometry">
            <mxPoint x="509" y="590" as="offset" />
          </mxGeometry>
        </mxCell>
        <mxCell id="0ncxLKNJgjDSfYJNMYuV-53" style="edgeStyle=orthogonalEdgeStyle;rounded=0;orthogonalLoop=1;jettySize=auto;html=1;entryX=0.5;entryY=1;entryDx=0;entryDy=0;" edge="1" parent="1" source="D2N0wtSz5P0G-kbIvdKz-1" target="8QCm501qEFq_NcqXzooc-174">
          <mxGeometry relative="1" as="geometry">
            <Array as="points">
              <mxPoint x="4900" y="1480" />
              <mxPoint x="3383" y="1480" />
            </Array>
          </mxGeometry>
        </mxCell>
        <mxCell id="0ncxLKNJgjDSfYJNMYuV-54" style="edgeStyle=orthogonalEdgeStyle;rounded=0;orthogonalLoop=1;jettySize=auto;html=1;entryX=0.5;entryY=1;entryDx=0;entryDy=0;" edge="1" parent="1" source="D2N0wtSz5P0G-kbIvdKz-1" target="8QCm501qEFq_NcqXzooc-151">
          <mxGeometry relative="1" as="geometry">
            <Array as="points">
              <mxPoint x="4900" y="1480" />
              <mxPoint x="2769" y="1480" />
            </Array>
          </mxGeometry>
        </mxCell>
        <mxCell id="0ncxLKNJgjDSfYJNMYuV-61" style="edgeStyle=orthogonalEdgeStyle;rounded=0;orthogonalLoop=1;jettySize=auto;html=1;" edge="1" parent="1" source="D2N0wtSz5P0G-kbIvdKz-1" target="8QCm501qEFq_NcqXzooc-150">
          <mxGeometry relative="1" as="geometry">
            <Array as="points">
              <mxPoint x="4900" y="1700" />
              <mxPoint x="2486" y="1700" />
            </Array>
          </mxGeometry>
        </mxCell>
        <mxCell id="D2N0wtSz5P0G-kbIvdKz-1" value="&lt;p style=&quot;margin:0px;margin-top:4px;text-align:center;&quot;&gt;&lt;b&gt;&amp;lt;&amp;lt;interface&amp;gt;&amp;gt;&lt;/b&gt;&lt;/p&gt;&lt;p style=&quot;margin:0px;margin-top:4px;text-align:center;&quot;&gt;&lt;b&gt;Crud&amp;lt;T, S&amp;gt;&lt;/b&gt;&lt;/p&gt;&lt;hr size=&quot;1&quot;&gt;&lt;p style=&quot;margin:0px;margin-left:4px;&quot;&gt;T select(S id)&lt;/p&gt;&lt;p style=&quot;margin:0px;margin-left:4px;&quot;&gt;List&amp;lt;T&amp;gt; selectAll()&lt;/p&gt;&lt;p style=&quot;margin:0px;margin-left:4px;&quot;&gt;boolean insert(T dto)&lt;/p&gt;&lt;p style=&quot;margin:0px;margin-left:4px;&quot;&gt;boolean update(S id, T dto)&lt;/p&gt;&lt;p style=&quot;margin:0px;margin-left:4px;&quot;&gt;boolean delete(S id)&lt;/p&gt;" style="verticalAlign=top;align=left;overflow=fill;fontSize=12;fontFamily=Helvetica;html=1;whiteSpace=wrap;" vertex="1" parent="1">
          <mxGeometry x="4820" y="1525" width="160" height="130" as="geometry" />
        </mxCell>
        <mxCell id="0ncxLKNJgjDSfYJNMYuV-60" value="extend" style="edgeLabel;html=1;align=center;verticalAlign=middle;resizable=0;points=[];" connectable="0" vertex="1" parent="1">
          <mxGeometry x="4941.5" y="1505" as="geometry" />
        </mxCell>
        <mxCell id="0ncxLKNJgjDSfYJNMYuV-63" value="extend" style="edgeLabel;html=1;align=center;verticalAlign=middle;resizable=0;points=[];" connectable="0" vertex="1" parent="1">
          <mxGeometry x="4930" y="1687" as="geometry" />
        </mxCell>
        <mxCell id="0ncxLKNJgjDSfYJNMYuV-65" value="extend" style="edgeLabel;html=1;align=center;verticalAlign=middle;resizable=0;points=[];" connectable="0" vertex="1" parent="1">
          <mxGeometry x="4941.4976470588235" y="2320" as="geometry" />
        </mxCell>
        <mxCell id="_x1iLk6Vw-6eqgtnyvab-20" value="Model" style="shape=umlFrame;whiteSpace=wrap;html=1;pointerEvents=0;container=0;" vertex="1" parent="1">
          <mxGeometry x="1451" y="1929" width="1739" height="451" as="geometry" />
        </mxCell>
        <mxCell id="D2N0wtSz5P0G-kbIvdKz-44" style="edgeStyle=orthogonalEdgeStyle;rounded=0;orthogonalLoop=1;jettySize=auto;html=1;dashed=1;endArrow=open;endFill=0;" edge="1" parent="1" source="D2N0wtSz5P0G-kbIvdKz-43" target="8QCm501qEFq_NcqXzooc-10">
          <mxGeometry relative="1" as="geometry" />
        </mxCell>
        <mxCell id="D2N0wtSz5P0G-kbIvdKz-45" value="Implements" style="edgeLabel;html=1;align=center;verticalAlign=middle;resizable=0;points=[];container=0;" connectable="0" vertex="1" parent="D2N0wtSz5P0G-kbIvdKz-44">
          <mxGeometry x="0.3387" relative="1" as="geometry">
            <mxPoint as="offset" />
          </mxGeometry>
        </mxCell>
        <mxCell id="D2N0wtSz5P0G-kbIvdKz-43" value="&lt;p style=&quot;margin:0px;margin-top:4px;text-align:center;&quot;&gt;&lt;b&gt;ItemServiceImpl Class&lt;/b&gt;&lt;br&gt;&lt;/p&gt;&lt;hr size=&quot;1&quot;&gt;&lt;p style=&quot;margin: 0px 0px 0px 4px;&quot;&gt;&lt;span style=&quot;font-size: 12px;&quot;&gt;- ItemService instance&lt;/span&gt;&lt;/p&gt;&lt;p style=&quot;margin: 0px 0px 0px 4px;&quot;&gt;&lt;span style=&quot;font-size: 12px;&quot;&gt;- BussinessManDao bussinessManDao&lt;/span&gt;&lt;/p&gt;&lt;p style=&quot;margin: 0px 0px 0px 4px;&quot;&gt;&lt;span style=&quot;font-size: 12px;&quot;&gt;- ItemDao itemDao&lt;/span&gt;&lt;/p&gt;&lt;hr size=&quot;1&quot;&gt;&lt;p style=&quot;margin:0px;margin-left:4px;&quot;&gt;+ getInstance(): ItemService&lt;/p&gt;&lt;p style=&quot;margin:0px;margin-left:4px;&quot;&gt;- ItemServiceImpl()&lt;/p&gt;" style="verticalAlign=top;align=left;overflow=fill;fontSize=12;fontFamily=Helvetica;html=1;whiteSpace=wrap;container=0;" vertex="1" parent="1">
          <mxGeometry x="1580" y="2210" width="215" height="119" as="geometry" />
        </mxCell>
        <mxCell id="D2N0wtSz5P0G-kbIvdKz-47" style="edgeStyle=orthogonalEdgeStyle;rounded=0;orthogonalLoop=1;jettySize=auto;html=1;dashed=1;endArrow=open;endFill=0;" edge="1" parent="1" source="8QCm501qEFq_NcqXzooc-150" target="D2N0wtSz5P0G-kbIvdKz-46">
          <mxGeometry relative="1" as="geometry">
            <Array as="points">
              <mxPoint x="2620" y="2070" />
              <mxPoint x="2620" y="2070" />
            </Array>
          </mxGeometry>
        </mxCell>
        <mxCell id="w6RqbGa0JhaT6BEguwRT-2" value="Implements" style="edgeLabel;html=1;align=center;verticalAlign=middle;resizable=0;points=[];container=0;" connectable="0" vertex="1" parent="D2N0wtSz5P0G-kbIvdKz-47">
          <mxGeometry x="0.0742" y="-2" relative="1" as="geometry">
            <mxPoint x="4" y="14" as="offset" />
          </mxGeometry>
        </mxCell>
        <mxCell id="D2N0wtSz5P0G-kbIvdKz-46" value="&lt;p style=&quot;margin:0px;margin-top:4px;text-align:center;&quot;&gt;&lt;b&gt;&amp;lt;&amp;lt;interface&amp;gt;&amp;gt;&lt;/b&gt;&lt;/p&gt;&lt;p style=&quot;margin:0px;margin-top:4px;text-align:center;&quot;&gt;&lt;b&gt;ItemDao&lt;/b&gt;&lt;/p&gt;&lt;hr size=&quot;1&quot;&gt;&lt;p style=&quot;margin: 0px 0px 0px 4px;&quot;&gt;&lt;span style=&quot;white-space: pre;&quot;&gt;&#x9;&lt;/span&gt;List&amp;lt;Item&amp;gt; select1(String keyword, int offset, int limit)&lt;/p&gt;&lt;p style=&quot;margin: 0px 0px 0px 4px;&quot;&gt;&lt;span style=&quot;white-space: normal;&quot;&gt;&lt;span style=&quot;white-space: pre;&quot;&gt;&#x9;&lt;/span&gt;List&amp;lt;Item&amp;gt; select2(String bussinessManId, int offset, int limit)&lt;/span&gt;&lt;/p&gt;&lt;p style=&quot;margin: 0px 0px 0px 4px;&quot;&gt;&lt;span style=&quot;white-space: normal;&quot;&gt;&lt;span style=&quot;white-space: pre;&quot;&gt;&#x9;&lt;/span&gt;boolean delete2(Integer id, String bussinessManId)&lt;/span&gt;&lt;/p&gt;&lt;p style=&quot;margin: 0px 0px 0px 4px;&quot;&gt;&lt;span style=&quot;white-space: normal;&quot;&gt;&lt;span style=&quot;white-space:pre&quot;&gt;&#x9;&lt;/span&gt;boolean update2(Integer id, String bussinessManId, Item item)&lt;/span&gt;&lt;/p&gt;&lt;p style=&quot;margin: 0px 0px 0px 4px;&quot;&gt;&lt;span style=&quot;white-space: normal;&quot;&gt;&lt;span style=&quot;white-space:pre&quot;&gt;&#x9;&lt;/span&gt;int count()&lt;/span&gt;&lt;/p&gt;&lt;p style=&quot;margin: 0px 0px 0px 4px;&quot;&gt;&lt;span style=&quot;white-space: normal;&quot;&gt;&lt;span style=&quot;white-space:pre&quot;&gt;&#x9;&lt;/span&gt;int count(Criteria criteria)&lt;/span&gt;&lt;/p&gt;&lt;p style=&quot;margin: 0px 0px 0px 4px;&quot;&gt;&lt;span style=&quot;white-space: normal;&quot;&gt;&lt;span style=&quot;white-space:pre&quot;&gt;&#x9;&lt;/span&gt;List&amp;lt;Item&amp;gt; Select(PageDto pageDto, int offset)&lt;/span&gt;&lt;/p&gt;&lt;p style=&quot;margin: 0px 0px 0px 4px;&quot;&gt;&lt;span style=&quot;white-space: normal;&quot;&gt;&lt;span style=&quot;white-space:pre&quot;&gt;&#x9;&lt;/span&gt;List&amp;lt;Item&amp;gt; Select(PageDto pageDto, int offset, String type, String keyword)&lt;/span&gt;&lt;/p&gt;&lt;p style=&quot;margin: 0px 0px 0px 4px;&quot;&gt;&lt;span style=&quot;white-space: normal;&quot;&gt;&lt;span style=&quot;white-space:pre&quot;&gt;&#x9;&lt;/span&gt;int count2(String id)&lt;/span&gt;&lt;/p&gt;&lt;p style=&quot;margin: 0px 0px 0px 4px;&quot;&gt;&lt;span style=&quot;white-space: normal;&quot;&gt;&lt;span style=&quot;white-space:pre&quot;&gt;&#x9;&lt;/span&gt;int count2(Criteria criteria, String id)&lt;/span&gt;&lt;/p&gt;&lt;p style=&quot;margin: 0px 0px 0px 4px;&quot;&gt;&lt;span style=&quot;white-space: normal;&quot;&gt;&lt;span style=&quot;white-space:pre&quot;&gt;&#x9;&lt;/span&gt;List&amp;lt;Item&amp;gt; Select2(PageDto pageDto, int offset, String id)&lt;/span&gt;&lt;/p&gt;&lt;p style=&quot;margin: 0px 0px 0px 4px;&quot;&gt;&lt;span style=&quot;white-space: normal;&quot;&gt;&lt;span style=&quot;white-space:pre&quot;&gt;&#x9;&lt;/span&gt;List&amp;lt;Item&amp;gt; Select2(PageDto pageDto, int offset, String type, String keyword, String id)&lt;/span&gt;&lt;/p&gt;" style="verticalAlign=top;align=left;overflow=fill;fontSize=12;fontFamily=Helvetica;html=1;whiteSpace=wrap;container=0;" vertex="1" parent="1">
          <mxGeometry x="1991" y="1950" width="539" height="245" as="geometry" />
        </mxCell>
        <mxCell id="8QCm501qEFq_NcqXzooc-6" value="&lt;p style=&quot;margin:0px;margin-top:4px;text-align:center;&quot;&gt;&lt;b&gt;Item Dto&lt;/b&gt;&lt;/p&gt;&lt;hr size=&quot;1&quot;&gt;&lt;p style=&quot;margin: 0px 0px 0px 4px;&quot;&gt;&lt;span style=&quot;text-wrap: nowrap; background-color: initial;&quot;&gt;&lt;b&gt;Item_id : Int&lt;/b&gt;&lt;/span&gt;&lt;/p&gt;&lt;p style=&quot;margin: 0px 0px 0px 4px;&quot;&gt;&lt;u&gt;&lt;span style=&quot;text-wrap: nowrap;&quot;&gt;BussinessMan_id : String&lt;/span&gt;&lt;span style=&quot;text-wrap: nowrap; background-color: initial;&quot;&gt;&lt;br&gt;&lt;/span&gt;&lt;/u&gt;&lt;/p&gt;&lt;div style=&quot;text-wrap: nowrap;&quot;&gt;&lt;div&gt;&amp;nbsp;item_name : String&lt;/div&gt;&lt;div&gt;&amp;nbsp;item_type : String&lt;/div&gt;&lt;div&gt;&amp;nbsp;item_price : int&lt;/div&gt;&lt;div&gt;&amp;nbsp;item_count : int&lt;/div&gt;&lt;div&gt;&amp;nbsp;item_manufacturing_date&amp;nbsp;&lt;span style=&quot;background-color: initial;&quot;&gt;: Date&lt;/span&gt;&lt;/div&gt;&lt;div&gt;&lt;br&gt;&lt;/div&gt;&lt;/div&gt;" style="verticalAlign=top;align=left;overflow=fill;fontSize=12;fontFamily=Helvetica;html=1;whiteSpace=wrap;container=0;" vertex="1" parent="1">
          <mxGeometry x="2690" y="2159.9975247524753" width="215" height="144.75247524752476" as="geometry" />
        </mxCell>
        <mxCell id="8QCm501qEFq_NcqXzooc-39" value="ItemDto" style="text;html=1;align=center;verticalAlign=middle;resizable=0;points=[];autosize=1;strokeColor=none;fillColor=none;container=0;" vertex="1" parent="1">
          <mxGeometry x="2770" y="2123" width="70" height="30" as="geometry" />
        </mxCell>
        <mxCell id="8QCm501qEFq_NcqXzooc-150" value="&lt;p style=&quot;margin:0px;margin-top:4px;text-align:center;&quot;&gt;&lt;b&gt;ItemDaoImpl Class&lt;/b&gt;&lt;br&gt;&lt;/p&gt;&lt;hr size=&quot;1&quot;&gt;&lt;p style=&quot;margin: 0px 0px 0px 4px;&quot;&gt;- instance: ItemDao&lt;/p&gt;&lt;hr size=&quot;1&quot;&gt;&lt;p style=&quot;margin:0px;margin-left:4px;&quot;&gt;+ getInstance(): ItemDao&lt;/p&gt;&lt;p style=&quot;margin:0px;margin-left:4px;&quot;&gt;- ItemDaoImpl()&lt;/p&gt;" style="verticalAlign=top;align=left;overflow=fill;fontSize=12;fontFamily=Helvetica;html=1;whiteSpace=wrap;container=0;" vertex="1" parent="1">
          <mxGeometry x="2690" y="1994" width="215" height="100" as="geometry" />
        </mxCell>
        <mxCell id="8QCm501qEFq_NcqXzooc-154" value="상품&lt;br&gt;테이블" style="shape=cylinder3;whiteSpace=wrap;html=1;boundedLbl=1;backgroundOutline=1;size=15;container=0;" vertex="1" parent="1">
          <mxGeometry x="2930" y="2040" width="50" height="70" as="geometry" />
        </mxCell>
        <mxCell id="8QCm501qEFq_NcqXzooc-158" value="ItemDao" style="text;html=1;align=center;verticalAlign=middle;resizable=0;points=[];autosize=1;strokeColor=none;fillColor=none;container=0;" vertex="1" parent="1">
          <mxGeometry x="2460" y="1952" width="70" height="30" as="geometry" />
        </mxCell>
        <mxCell id="TxUqmTtOGlN5Qr08p6-o-12" value="" style="endArrow=none;html=1;rounded=0;exitX=0;exitY=0.5;exitDx=0;exitDy=0;exitPerimeter=0;" edge="1" parent="1" source="8QCm501qEFq_NcqXzooc-154" target="8QCm501qEFq_NcqXzooc-150">
          <mxGeometry width="50" height="50" relative="1" as="geometry">
            <mxPoint x="2850" y="2526" as="sourcePoint" />
            <mxPoint x="2879" y="2534" as="targetPoint" />
          </mxGeometry>
        </mxCell>
        <mxCell id="8QCm501qEFq_NcqXzooc-10" value="&lt;p style=&quot;margin:0px;margin-top:4px;text-align:center;&quot;&gt;&lt;b&gt;&amp;lt;&amp;lt;interface&amp;gt;&amp;gt;&lt;/b&gt;&lt;/p&gt;&lt;p style=&quot;margin:0px;margin-top:4px;text-align:center;&quot;&gt;&lt;b&gt;ItemService&lt;/b&gt;&lt;/p&gt;&lt;hr size=&quot;1&quot;&gt;&lt;p style=&quot;margin:0px;margin-left:4px;&quot;&gt;&lt;span style=&quot;white-space: pre;&quot;&gt;&#x9;&lt;/span&gt;Map&amp;lt;String, Object&amp;gt; BussinessManItemShow(String userId, int offset, int limit)&lt;/p&gt;&lt;p style=&quot;margin:0px;margin-left:4px;&quot;&gt;&lt;span style=&quot;white-space: normal;&quot;&gt;&lt;span style=&quot;white-space:pre&quot;&gt;&#x9;&lt;/span&gt;Map&amp;lt;String, Object&amp;gt; KeywordItemShow(String keyword, int offset, int limit)&lt;/span&gt;&lt;/p&gt;&lt;p style=&quot;margin:0px;margin-left:4px;&quot;&gt;&lt;span style=&quot;white-space: normal;&quot;&gt;&lt;span style=&quot;white-space:pre&quot;&gt;&#x9;&lt;/span&gt;Map&amp;lt;String, Object&amp;gt; ItemInsert(Item item, String userId)&lt;/span&gt;&lt;/p&gt;&lt;p style=&quot;margin:0px;margin-left:4px;&quot;&gt;&lt;span style=&quot;white-space: normal;&quot;&gt;&lt;span style=&quot;white-space:pre&quot;&gt;&#x9;&lt;/span&gt;Map&amp;lt;String, Object&amp;gt; ItemUpdate(int itemId, String userId, Item updateItem)&lt;/span&gt;&lt;/p&gt;&lt;p style=&quot;margin:0px;margin-left:4px;&quot;&gt;&lt;span style=&quot;white-space: normal;&quot;&gt;&lt;span style=&quot;white-space:pre&quot;&gt;&#x9;&lt;/span&gt;Map&amp;lt;String, Object&amp;gt; ItemDelete(int itemId, String userId)&lt;/span&gt;&lt;/p&gt;&lt;p style=&quot;margin:0px;margin-left:4px;&quot;&gt;&lt;span style=&quot;white-space: normal;&quot;&gt;&lt;span style=&quot;white-space:pre&quot;&gt;&#x9;&lt;/span&gt;Item getItem(int itemId)&lt;/span&gt;&lt;/p&gt;&lt;p style=&quot;margin:0px;margin-left:4px;&quot;&gt;&lt;span style=&quot;white-space: normal;&quot;&gt;&lt;span style=&quot;white-space:pre&quot;&gt;&#x9;&lt;/span&gt;Map&amp;lt;String, Object&amp;gt; getAllItems(Criteria criteria)&lt;/span&gt;&lt;/p&gt;&lt;p style=&quot;margin:0px;margin-left:4px;&quot;&gt;&lt;span style=&quot;white-space: normal;&quot;&gt;&lt;span style=&quot;white-space:pre&quot;&gt;&#x9;&lt;/span&gt;Map&amp;lt;String, Object&amp;gt; getAllBusinessManItems(Criteria criteria, String userId)&lt;/span&gt;&lt;/p&gt;" style="verticalAlign=top;align=left;overflow=fill;fontSize=12;fontFamily=Helvetica;html=1;whiteSpace=wrap;container=0;" vertex="1" parent="1">
          <mxGeometry x="1511" y="1952" width="460" height="181.95" as="geometry" />
        </mxCell>
        <mxCell id="hB35oV2SkAgk2I2fWWv7-3" value="&lt;p style=&quot;margin:0px;margin-top:4px;text-align:center;&quot;&gt;&lt;b&gt;itemAdd Class&lt;/b&gt;&lt;/p&gt;" style="verticalAlign=top;align=left;overflow=fill;fontSize=12;fontFamily=Helvetica;html=1;whiteSpace=wrap;" vertex="1" parent="1">
          <mxGeometry x="77.13" y="2538" width="155" height="53" as="geometry" />
        </mxCell>
        <mxCell id="hB35oV2SkAgk2I2fWWv7-4" value="&lt;p style=&quot;margin:0px;margin-top:4px;text-align:center;&quot;&gt;&lt;b&gt;bussinessManSearch&amp;nbsp;&lt;/b&gt;&lt;/p&gt;&lt;p style=&quot;margin:0px;margin-top:4px;text-align:center;&quot;&gt;&lt;b style=&quot;background-color: initial;&quot;&gt;Class&lt;/b&gt;&lt;/p&gt;" style="verticalAlign=top;align=left;overflow=fill;fontSize=12;fontFamily=Helvetica;html=1;whiteSpace=wrap;" vertex="1" parent="1">
          <mxGeometry x="77.00999999999999" y="2628" width="153.62" height="53" as="geometry" />
        </mxCell>
        <mxCell id="hB35oV2SkAgk2I2fWWv7-5" value="&lt;p style=&quot;margin:0px;margin-top:4px;text-align:center;&quot;&gt;&lt;b&gt;itemDetail&amp;nbsp;&lt;/b&gt;&lt;b style=&quot;background-color: initial;&quot;&gt;Class&lt;/b&gt;&lt;/p&gt;" style="verticalAlign=top;align=left;overflow=fill;fontSize=12;fontFamily=Helvetica;html=1;whiteSpace=wrap;" vertex="1" parent="1">
          <mxGeometry x="74.63" y="2718" width="155" height="53" as="geometry" />
        </mxCell>
        <mxCell id="hB35oV2SkAgk2I2fWWv7-6" value="&lt;p style=&quot;margin:0px;margin-top:4px;text-align:center;&quot;&gt;&lt;b&gt;itemDetailShow Class&lt;/b&gt;&lt;/p&gt;" style="verticalAlign=top;align=left;overflow=fill;fontSize=12;fontFamily=Helvetica;html=1;whiteSpace=wrap;" vertex="1" parent="1">
          <mxGeometry x="74.63" y="2807.5" width="155" height="53" as="geometry" />
        </mxCell>
        <mxCell id="hB35oV2SkAgk2I2fWWv7-7" value="&lt;p style=&quot;margin:0px;margin-top:4px;text-align:center;&quot;&gt;&lt;b&gt;list Class&lt;/b&gt;&lt;/p&gt;" style="verticalAlign=top;align=left;overflow=fill;fontSize=12;fontFamily=Helvetica;html=1;whiteSpace=wrap;" vertex="1" parent="1">
          <mxGeometry x="77.13" y="2898" width="155" height="53" as="geometry" />
        </mxCell>
        <mxCell id="hB35oV2SkAgk2I2fWWv7-8" value="/item/bussinessMad/add&lt;span style=&quot;color: rgba(0, 0, 0, 0); font-family: monospace; font-size: 0px; text-align: start; text-wrap: nowrap;&quot;&gt;%3CmxGraphModel%3E%3Croot%3E%3CmxCell%20id%3D%220%22%2F%3E%3CmxCell%20id%3D%221%22%20parent%3D%220%22%2F%3E%3CmxCell%20id%3D%222%22%20value%3D%22%2Fuser%2Flogout%22%20style%3D%22text%3Bhtml%3D1%3Balign%3Dcenter%3BverticalAlign%3Dmiddle%3BwhiteSpace%3Dwrap%3Brounded%3D0%3B%22%20vertex%3D%221%22%20parent%3D%221%22%3E%3CmxGeometry%20x%3D%22235.75%22%20y%3D%221532.5%22%20width%3D%2274.25%22%20height%3D%2229%22%20as%3D%22geometry%22%2F%3E%3C%2FmxCell%3E%3C%2Froot%3E%3C%2FmxGraphModel%3E&lt;/span&gt;&lt;span style=&quot;color: rgba(0, 0, 0, 0); font-family: monospace; font-size: 0px; text-align: start; text-wrap: nowrap;&quot;&gt;%3CmxGraphModel%3E%3Croot%3E%3CmxCell%20id%3D%220%22%2F%3E%3CmxCell%20id%3D%221%22%20parent%3D%220%22%2F%3E%3CmxCell%20id%3D%222%22%20value%3D%22%2Fuser%2Flogout%22%20style%3D%22text%3Bhtml%3D1%3Balign%3Dcenter%3BverticalAlign%3Dmiddle%3BwhiteSpace%3Dwrap%3Brounded%3D0%3B%22%20vertex%3D%221%22%20parent%3D%221%22%3E%3CmxGeometry%20x%3D%22235.75%22%20y%3D%221532.5%22%20width%3D%2274.25%22%20height%3D%2229%22%20as%3D%22geometry%22%2F%3E%3C%2FmxCell%3E%3C%2Froot%3E%3C%2FmxGraphM&lt;/span&gt;" style="text;html=1;align=center;verticalAlign=middle;whiteSpace=wrap;rounded=0;" vertex="1" parent="1">
          <mxGeometry x="270.63" y="2568" width="74.25" height="29" as="geometry" />
        </mxCell>
        <mxCell id="hB35oV2SkAgk2I2fWWv7-9" style="edgeStyle=orthogonalEdgeStyle;rounded=0;orthogonalLoop=1;jettySize=auto;html=1;endArrow=none;endFill=0;exitX=0;exitY=0.5;exitDx=0;exitDy=0;" edge="1" parent="1" source="0ncxLKNJgjDSfYJNMYuV-29" target="hB35oV2SkAgk2I2fWWv7-3">
          <mxGeometry relative="1" as="geometry">
            <mxPoint x="410.63" y="2278" as="sourcePoint" />
            <mxPoint x="239.63" y="2484" as="targetPoint" />
            <Array as="points">
              <mxPoint x="320.63" y="2272" />
              <mxPoint x="320.63" y="2565" />
            </Array>
          </mxGeometry>
        </mxCell>
        <mxCell id="hB35oV2SkAgk2I2fWWv7-11" value="/item/businessMan/list" style="text;html=1;align=center;verticalAlign=middle;whiteSpace=wrap;rounded=0;" vertex="1" parent="1">
          <mxGeometry x="260.63" y="2652" width="74.25" height="29" as="geometry" />
        </mxCell>
        <mxCell id="hB35oV2SkAgk2I2fWWv7-12" value="/item/businessMan/info" style="text;html=1;align=center;verticalAlign=middle;whiteSpace=wrap;rounded=0;" vertex="1" parent="1">
          <mxGeometry x="260.63" y="2741" width="74.25" height="30" as="geometry" />
        </mxCell>
        <mxCell id="hB35oV2SkAgk2I2fWWv7-13" value="/item/info" style="text;html=1;align=center;verticalAlign=middle;whiteSpace=wrap;rounded=0;" vertex="1" parent="1">
          <mxGeometry x="243.51" y="2830.5" width="74.25" height="30" as="geometry" />
        </mxCell>
        <mxCell id="hB35oV2SkAgk2I2fWWv7-14" value="/item/list" style="text;html=1;align=center;verticalAlign=middle;whiteSpace=wrap;rounded=0;" vertex="1" parent="1">
          <mxGeometry x="243.51" y="2923" width="74.25" height="30" as="geometry" />
        </mxCell>
        <mxCell id="hB35oV2SkAgk2I2fWWv7-15" value="&lt;p style=&quot;margin:0px;margin-top:4px;text-align:center;&quot;&gt;&lt;b&gt;list Class&lt;/b&gt;&lt;/p&gt;" style="verticalAlign=top;align=left;overflow=fill;fontSize=12;fontFamily=Helvetica;html=1;whiteSpace=wrap;" vertex="1" parent="1">
          <mxGeometry x="69.5" y="1882.25" width="155" height="53" as="geometry" />
        </mxCell>
        <mxCell id="hB35oV2SkAgk2I2fWWv7-16" value="/item/list" style="text;html=1;align=center;verticalAlign=middle;whiteSpace=wrap;rounded=0;" vertex="1" parent="1">
          <mxGeometry x="232.51" y="1910" width="74.25" height="30" as="geometry" />
        </mxCell>
      </root>
    </mxGraphModel>
  </diagram>
</mxfile>
